<svg xmlns="http://www.w3.org/2000/svg" width="14.054" height="14" viewBox="0 0 14.054 14"><defs><style>.a{fill:#333;}</style></defs><g transform="translate(0 -0.117)"><path class="a" d="M11.437,16.464H9.1v1.385h2.333c.694,0,1.232.354,1.232.659v6.14c0,.3-.538.66-1.232.66H2.617c-.694,0-1.232-.355-1.232-.66V18.509c0-.305.538-.66,1.232-.66H4.95V16.464H2.617c-1.467,0-2.617.9-2.617,2.044v6.139c0,1.146,1.149,2.044,2.617,2.044h8.82c1.467,0,2.617-.9,2.617-2.044V18.509C14.054,17.362,12.9,16.464,11.437,16.464Z" transform="translate(0 -12.575)"/><path class="a" d="M23.408,6.783a.69.69,0,0,0-.489.2l-.867.867V.809a.692.692,0,1,0-1.385,0V7.9l-.914-.913a.692.692,0,0,0-.979.979l2.067,2.067a.69.69,0,0,0,.489.2h.01a.689.689,0,0,0,.489-.2L23.9,7.964a.692.692,0,0,0-.489-1.181Z" transform="translate(-14.286)"/></g></svg>