<svg xmlns="http://www.w3.org/2000/svg" xmlns:xlink="http://www.w3.org/1999/xlink" width="600" height="382.58" viewBox="0 0 600 382.58"><defs><style>.a{fill:url(#a);}.b{fill:url(#b);}.c{fill:#bdd0fb;}.d{fill:url(#c);}.ak,.al,.ao,.e,.k{fill:#fff;}.e{opacity:0.5;}.f{fill:url(#d);}.g{fill:url(#e);}.h{fill:url(#f);}.i{fill:url(#g);}.j{fill:#0c80ae;}.l{fill:#7c9cbf;}.m{fill:url(#h);}.n{fill:url(#i);}.o{fill:url(#j);}.p{fill:url(#k);}.q{fill:url(#l);}.r{fill:url(#m);}.s{fill:url(#n);}.t{fill:url(#o);}.u{fill:url(#p);}.v{fill:url(#q);}.w{fill:url(#r);}.x{fill:url(#s);}.y{fill:url(#t);}.z{fill:url(#u);}.aa{fill:url(#v);}.ab{fill:url(#w);}.ac{fill:url(#x);}.ad{fill:url(#y);}.ae{fill:url(#z);}.af{fill:url(#aa);}.ag{fill:url(#ab);}.ah{fill:url(#ac);}.ai{fill:url(#ad);}.aj{fill:url(#ae);}.ak{opacity:0.2;}.al{opacity:0.53;}.am{opacity:0.64;}.an{fill:url(#af);}.ao{opacity:0.56;}.ap{fill:url(#ag);}.aq{fill:#7d97f4;}.ar{fill:#91b3fa;}</style><linearGradient id="a" x1="1.028" y1="1.198" x2="0.089" y2="-0.384" gradientUnits="objectBoundingBox"><stop offset="0" stop-color="#e6ecfd"/><stop offset="1" stop-color="#e9effd"/></linearGradient><linearGradient id="b" x1="0.645" y1="1.228" x2="0.282" y2="0.158" xlink:href="#a"/><linearGradient id="c" y1="0.5" x2="1" y2="0.5" gradientUnits="objectBoundingBox"><stop offset="0" stop-color="#dae3fe"/><stop offset="1" stop-color="#e9effd"/></linearGradient><linearGradient id="d" x1="0" y1="0.5" x2="1" y2="0.5" xlink:href="#c"/><linearGradient id="e" x1="0" y1="0.5" x2="1" y2="0.5" xlink:href="#c"/><linearGradient id="f" x1="0" y1="0.5" x2="1" y2="0.5" xlink:href="#c"/><linearGradient id="g" x1="0" y1="0.5" x2="1" y2="0.5" xlink:href="#c"/><linearGradient id="h" y1="0.5" x2="1" y2="0.5" gradientUnits="objectBoundingBox"><stop offset="0" stop-color="#febbba"/><stop offset="1" stop-color="#ff928e"/></linearGradient><linearGradient id="i" x1="0.479" y1="0.158" x2="0.541" y2="1.532" gradientUnits="objectBoundingBox"><stop offset="0" stop-color="#864bf3"/><stop offset="1" stop-color="#681dda"/></linearGradient><linearGradient id="j" x1="1.107" y1="-0.006" x2="-0.123" y2="0.733" xlink:href="#i"/><linearGradient id="k" x1="1.314" y1="-0.073" x2="-0.687" y2="1.48" xlink:href="#h"/><linearGradient id="l" x1="1.01" y1="-1.181" x2="0.399" y2="0.558" xlink:href="#h"/><linearGradient id="m" x1="0.7" y1="0.019" x2="-1.5" y2="3.349" xlink:href="#h"/><linearGradient id="n" x1="1.146" y1="-0.099" x2="-0.554" y2="1.428" gradientUnits="objectBoundingBox"><stop offset="0" stop-color="#c765f3"/><stop offset="0.5" stop-color="#bc39ee"/><stop offset="1" stop-color="#b334da"/></linearGradient><linearGradient id="o" x1="0.181" y1="1.219" x2="0.572" y2="0.33" xlink:href="#h"/><linearGradient id="p" x1="0.53" y1="0.549" x2="0.112" y2="1.263" xlink:href="#h"/><linearGradient id="q" x1="-0.382" y1="-1.248" x2="0.485" y2="0.47" gradientUnits="objectBoundingBox"><stop offset="0" stop-color="#09005d"/><stop offset="1" stop-color="#1a0f91"/></linearGradient><linearGradient id="r" x1="0.151" y1="-0.429" x2="0.657" y2="0.974" xlink:href="#q"/><linearGradient id="s" x1="0.821" y1="0.35" x2="-0.291" y2="1.106" xlink:href="#h"/><linearGradient id="t" x1="0.28" y1="0.152" x2="1.03" y2="1.129" gradientUnits="objectBoundingBox"><stop offset="0" stop-color="#090056"/><stop offset="1" stop-color="#020039"/></linearGradient><linearGradient id="u" x1="2.74" y1="-0.685" x2="-1.811" y2="1.784" xlink:href="#h"/><linearGradient id="v" x1="0" y1="0.5" x2="1" y2="0.5" xlink:href="#h"/><linearGradient id="w" x1="0.044" y1="0.32" x2="1.422" y2="0.819" xlink:href="#i"/><linearGradient id="x" x1="0.589" y1="0.833" x2="0.309" y2="-0.235" xlink:href="#h"/><linearGradient id="y" x1="0.485" y1="0.339" x2="0.712" y2="1.663" gradientUnits="objectBoundingBox"><stop offset="0" stop-color="#4f52ff"/><stop offset="1" stop-color="#4042e2"/></linearGradient><linearGradient id="z" x1="-0.653" y1="0.098" x2="2.14" y2="1.033" xlink:href="#i"/><linearGradient id="aa" x1="-0.279" y1="0.282" x2="1.279" y2="0.718" xlink:href="#y"/><linearGradient id="ab" x1="0.724" y1="0.148" x2="-0.021" y2="1.392" xlink:href="#h"/><linearGradient id="ac" x1="12.018" y1="19.718" x2="10.945" y2="21" xlink:href="#h"/><linearGradient id="ad" x1="8.018" y1="13.47" x2="8.924" y2="13.47" xlink:href="#t"/><linearGradient id="ae" x1="27.817" y1="66.684" x2="30.275" y2="64.035" xlink:href="#h"/><linearGradient id="af" x1="-0.779" y1="-0.309" x2="1.57" y2="1.177" xlink:href="#i"/><linearGradient id="ag" x1="-0.849" y1="-0.353" x2="3.334" y2="2.293" xlink:href="#n"/></defs><g transform="translate(0.001)"><g transform="translate(-0.001)"><path class="a" d="M1314.046,145.219c-8.533,13.237,9.443,39.443,45.14,91.533,42.038,61.319,95.082,138.694,135.426,126.564,29.694-8.931,48.508-65.15,39.775-108.485C1513.555,151.6,1334.671,113.225,1314.046,145.219Z" transform="translate(-936.534 -95.83)"/><path class="b" d="M581.593,466.635c-1.013,7.268-11.377,28.852-307.519,31.594-153.3,1.431-180.174-4.092-204.13-28.237C18.17,417.812,12.665,311.436,57.281,243.87c60.2-91.161,189.248-77.315,258.164-49.91a117.3,117.3,0,0,1,19.939,9.766c107.08,67.471,107.46,138.422,218.157,231.7C572.914,451.749,582.82,457.83,581.593,466.635Z" transform="translate(-19.378 -123.768)"/><path class="c" d="M1514.781,783.676a.949.949,0,0,1-1.831-.5c5.608-22.892,4.215-12.943,8.914-32.449,11.732-48.771-.55-72.11-1.459-97.917s18.932-56.031,60.721-40.59c34.126,12.608,61.044,21.636,74.193,21.284a3.122,3.122,0,0,1,2.673,4.842c-9.157,13.893-33.268,44.9-65.336,43.821-41.283-1.391-40.539-12.651-50.425-2.81s-10.7,20.545-12.379,40.6C1528.393,737.231,1528.293,738.533,1514.781,783.676Z" transform="translate(-1079.997 -434.038)"/><path class="d" d="M1559.115,768.321a82.114,82.114,0,0,1-1.929-9.649,85.887,85.887,0,0,1-.858-9.775,62.032,62.032,0,0,1,2.364-19.553,41.288,41.288,0,0,1,4.032-9.131,33.876,33.876,0,0,1,6.352-7.763,37.343,37.343,0,0,1,8.321-5.554c1.477-.7,2.939-1.431,4.455-2.037,1.494-.667,3.03-1.23,4.561-1.808a73.483,73.483,0,0,1,9.46-2.681,60.487,60.487,0,0,1,9.783-1.145,63.44,63.44,0,0,1,9.812.438c3.242.392,6.444.993,9.609,1.674,6.327,1.379,12.536,3.019,18.84,4.095a83.2,83.2,0,0,0,19.092,1.179h0a.548.548,0,1,1,.074,1.093,84.673,84.673,0,0,1-19.421-.678c-6.424-.921-12.711-2.487-18.995-3.72a78.239,78.239,0,0,0-18.92-1.751,58.047,58.047,0,0,0-9.369,1.228,71.071,71.071,0,0,0-9.079,2.7c-1.474.572-2.953,1.145-4.392,1.808-1.462.618-2.861,1.342-4.292,2.037a34.931,34.931,0,0,0-7.666,5.176,34.362,34.362,0,0,0-9.489,15.684,60.509,60.509,0,0,0-2.289,18.643,91.358,91.358,0,0,0,.724,9.471,79.12,79.12,0,0,0,1.74,9.308v.049a1.313,1.313,0,1,1-2.541.664Z" transform="translate(-1110.968 -499.117)"/><path class="e" d="M1598.685,1074.046a18.529,18.529,0,0,0,3.245-.858,30.026,30.026,0,0,0,3.148-1.308,47.657,47.657,0,0,0,5.906-3.405,76.394,76.394,0,0,0,10.553-8.685,153.31,153.31,0,0,0,17.535-21.192c2.7-3.749,5.345-7.554,8.23-11.229a47.574,47.574,0,0,1,10-9.941,25.9,25.9,0,0,1,6.35-3.251,25.4,25.4,0,0,1,6.979-1.333,42.772,42.772,0,0,1,13.855,1.871.3.3,0,1,1-.146.589h0a44.275,44.275,0,0,0-13.609-1.2,26.2,26.2,0,0,0-6.562,1.494,24.4,24.4,0,0,0-5.877,3.211,47.475,47.475,0,0,0-9.369,9.812c-2.77,3.637-5.351,7.483-8.012,11.266s-5.437,7.549-8.336,11.186c-.741.9-1.511,1.78-2.266,2.673s-1.5,1.786-2.318,2.627l-2.4,2.558-2.53,2.435a67.329,67.329,0,0,1-11.134,8.564,40.645,40.645,0,0,1-6.3,3.148,23.126,23.126,0,0,1-6.868,1.754.393.393,0,1,1-.086-.781Z" transform="translate(-1140.966 -722.99)"/><path class="c" d="M226.976,1059.651s-34.85,24.18-56.346,2.455c-19.982-20.2-19.81-42.087-40.822-46.831a3.3,3.3,0,0,1-1.717-5.38c6.507-7.44,22.537-20.359,50.362-11.16C216.214,1011.2,226.976,1059.651,226.976,1059.651Z" transform="translate(-90.854 -710.675)"/><path class="f" d="M260.932,1084.81a21.172,21.172,0,0,1-6.415-1.176,37.065,37.065,0,0,1-5.972-2.507,61.489,61.489,0,0,1-10.725-7.168l-2.467-2.077-2.352-2.2c-.8-.721-1.534-1.5-2.289-2.269s-1.5-1.531-2.235-2.312c-2.887-3.148-5.634-6.436-8.3-9.746s-5.254-6.673-8.012-9.841a43.588,43.588,0,0,0-9.134-8.416,22.148,22.148,0,0,0-5.551-2.59,24.153,24.153,0,0,0-6.081-.984,40.724,40.724,0,0,0-12.379,1.883h0a.3.3,0,0,1-.186-.572,39.475,39.475,0,0,1,12.591-2.575,23.18,23.18,0,0,1,6.484.8,23.848,23.848,0,0,1,6.026,2.6,44.139,44.139,0,0,1,9.769,8.507c2.864,3.176,5.52,6.516,8.212,9.786a142.619,142.619,0,0,0,17.3,18.345,70.866,70.866,0,0,0,10.155,7.323,43.847,43.847,0,0,0,5.594,2.778,27.788,27.788,0,0,0,2.947,1.019,17.247,17.247,0,0,0,3.01.612h.046a.392.392,0,1,1-.034.784Z" transform="translate(-127.538 -736.876)"/><path class="c" d="M381.647,278.931s-2-34.8-18.754-42.788-47.641-11.326-52.843-61.1C307,145.9,305.242,133.2,304.3,127.672a3.3,3.3,0,0,1,3.6-3.837c15.381,1.62,65.551,9.357,78.605,42.107C401.981,204.767,381.647,278.931,381.647,278.931Z" transform="translate(-217.194 -88.387)"/><path class="g" d="M359.107,168.28a148.715,148.715,0,0,1,14.21,12.376l1.677,1.651L376.637,184c1.1,1.122,2.195,2.246,3.254,3.408,2.152,2.289,4.195,4.676,6.261,7.045,2,2.424,4.026,4.833,5.912,7.351,1.946,2.472,3.774,5.033,5.606,7.594a177.668,177.668,0,0,1,10.038,16.024c.747,1.4,1.517,2.8,2.243,4.209l1.969,4.344.981,2.172.858,2.223,1.668,4.467,1.431,4.538.7,2.269.592,2.289c.386,1.537.8,3.065,1.145,4.61l.936,4.653a136.392,136.392,0,0,1,1.894,37.749,1.359,1.359,0,1,1-2.713-.175v-.086a142.388,142.388,0,0,0-.555-18.417,167.133,167.133,0,0,0-2.7-18.253l-1-4.5c-.369-1.491-.79-2.967-1.173-4.452l-.592-2.223-.7-2.189-1.414-4.375-1.642-4.292-.816-2.146-.941-2.089L406,231.562c-.7-1.359-1.431-2.7-2.146-4.046-1.365-2.713-3.025-5.34-4.6-7.989-.773-1.336-1.654-2.6-2.475-3.912s-1.643-2.615-2.538-3.872c-3.434-5.151-7.119-10.1-10.914-14.988-1.94-2.407-3.872-4.824-5.9-7.154-.984-1.193-2-2.355-3.036-3.514l-1.539-1.74-1.574-1.717c-4.181-4.564-8.55-9.005-13.131-13.134l-.023-.02a.773.773,0,0,1,.979-1.193Z" transform="translate(-255.469 -120.021)"/><path class="c" d="M234.8,668.341c3.268,1.866-29.213-44.765-35.846-115.187-3.125-33.193-.572-74.353-18.288-91.4-14.737-14.193-68.269-9.223-85.813-7.154a2.6,2.6,0,0,0-1.5,4.473c7.872,7.514,24.609,25.118,28.2,42.015,4.721,22.274,24.643,37.514,43.031,42.465s28.532,9.26,35.7,39.626S225.514,663.033,234.8,668.341Z" transform="translate(-66.063 -322.696)"/><path class="h" d="M182.611,498.86a84.385,84.385,0,0,1,31.871,10.2,66.077,66.077,0,0,1,13.632,10.015,57.362,57.362,0,0,1,10.393,13.449l1.019,1.874c.338.627.612,1.285.921,1.923s.612,1.293.878,1.937l.807,1.926q1.628,3.852,3.2,7.726,3.148,7.743,6.032,15.584c3.863,10.45,7.394,21.023,10.264,31.811a.529.529,0,0,1-.375.65.535.535,0,0,1-.641-.346h0c-1.743-5.257-3.583-10.5-5.523-15.7s-3.892-10.4-5.92-15.561L246.1,556.6l-3.148-7.7q-1.571-3.854-3.211-7.68l-.813-1.914c-.269-.641-.572-1.239-.858-1.86s-.552-1.242-.858-1.843l-.961-1.794a56.822,56.822,0,0,0-9.838-12.934,62.577,62.577,0,0,0-6.2-5.38l-.813-.624-.836-.592c-.572-.395-1.107-.8-1.677-1.185-1.145-.747-2.289-1.511-3.468-2.2a85.14,85.14,0,0,0-14.914-6.982,88.741,88.741,0,0,0-15.979-4.209H182.5a.426.426,0,0,1,.114-.844Z" transform="translate(-130.025 -356.112)"/><path class="c" d="M137.711,892.662c2,1.059-11.294-21.836-12.3-42.007s-5.583-54.6-22.966-75.191-36.453-22.471-60.455-3.751c-20,15.6-32.478,23.464-39.795,24.938a2.767,2.767,0,0,0-1.854,4.032c4.693,8.645,17.962,28.495,40.238,27.1,28.417-1.783,62.856-20.257,73.354-4.847s9.157,24.036,9.472,31.336S124.44,885.666,137.711,892.662Z" transform="translate(0.001 -541.649)"/><path class="i" d="M174.678,852.923a56.5,56.5,0,0,1,4.945-4.169,64.513,64.513,0,0,1,5.342-3.677,53.158,53.158,0,0,1,11.781-5.568,37.091,37.091,0,0,1,6.456-1.456,27.507,27.507,0,0,1,6.7-.029c.558.089,1.122.143,1.674.266s1.116.235,1.648.386l3.148.976,3.073,1.2,2.979,1.431A37.425,37.425,0,0,1,232.8,850.4a46.435,46.435,0,0,1,7.171,10.931l.712,1.462c.246.486.424,1,.638,1.5.4,1,.836,2,1.213,3.007l1.05,3.062c.372,1.013.61,2.066.907,3.1a111.4,111.4,0,0,1,2.693,12.591.475.475,0,0,1-.927.192v-.014c-1.016-4.132-1.986-8.27-3.371-12.267-.627-2.02-1.431-3.975-2.16-5.949-.4-.973-.858-1.923-1.271-2.884-.223-.475-.412-.967-.664-1.431l-.733-1.388a47.457,47.457,0,0,0-7.1-10.213,36.4,36.4,0,0,0-9.778-7.44l-2.821-1.336-2.9-1.107-2.973-.9c-.5-.14-.976-.232-1.465-.352s-.987-.16-1.482-.249a24.919,24.919,0,0,0-6.055-.014,34.758,34.758,0,0,0-6.035,1.216,58.371,58.371,0,0,0-11.515,4.882c-1.84,1.019-3.666,2.08-5.437,3.231S177,852.4,175.33,853.673h-.014a.492.492,0,0,1-.638-.747Z" transform="translate(-124.587 -598.087)"/><path class="j" d="M434.36,811.743l3.488,108.522A35.312,35.312,0,0,0,473.01,954.36l259.884,1.534a25.467,25.467,0,0,0,25.4-21.682c4.063-27.407,9.24-76.445,3.411-122.472Z" transform="translate(-310.068 -579.461)"/><path class="k" d="M742.762,948.451h-1.894a.318.318,0,0,1,0-.632h1.891a.318.318,0,0,1,0,.632Zm4.415-.031a.315.315,0,0,1-.02-.63c.618-.037,1.245-.1,1.857-.186a.315.315,0,0,1,.089.624c-.632.089-1.273.152-1.906.192Zm-10.725,0h-1.894a.318.318,0,0,1,0-.632h1.891a.318.318,0,0,1,0,.632Zm-6.312-.037h-1.894a.318.318,0,0,1,0-.632h1.894a.318.318,0,1,1,0,.632Zm-6.3-.037h-1.894a.318.318,0,0,1-.315-.318.343.343,0,0,1,.318-.315h1.894a.318.318,0,0,1,0,.632Zm-6.3-.037h-1.891a.318.318,0,1,1,0-.632h1.894a.318.318,0,0,1,0,.632Zm-6.3-.037h-1.891a.318.318,0,0,1-.315-.318.332.332,0,0,1,.318-.315h1.894a.318.318,0,0,1,0,.632Zm-6.3-.037h-1.891a.318.318,0,0,1,0-.632h1.891a.318.318,0,0,1,0,.632Zm-6.31-.037h-1.894a.318.318,0,0,1,0-.632h1.891a.318.318,0,0,1,0,.632Zm-6.312-.037h-1.894a.318.318,0,0,1,0-.632h1.891a.318.318,0,1,1,0,.632Zm-6.3-.037h-1.894a.318.318,0,0,1,0-.632h1.894a.318.318,0,1,1,0,.632Zm-6.3-.037h-1.894a.318.318,0,0,1,0-.632h1.894a.318.318,0,0,1,0,.632Zm-6.3-.037H671.56a.318.318,0,1,1,0-.632h1.894a.318.318,0,0,1,0,.632Zm-6.31-.037H665.25a.318.318,0,0,1,0-.632h1.894a.318.318,0,0,1,0,.632Zm-6.3-.037h-1.891a.318.318,0,0,1,0-.632h1.891a.318.318,0,0,1,0,.632Zm-6.3-.037h-1.894a.318.318,0,0,1,0-.632h1.891a.318.318,0,0,1,0,.632Zm-6.312-.037h-1.894a.312.312,0,0,1-.312-.318.346.346,0,0,1,.318-.315h1.891a.318.318,0,1,1,0,.632Zm-6.3-.037h-1.894a.318.318,0,1,1,0-.632h1.894a.318.318,0,0,1,0,.632Zm-6.31-.037H633.74a.318.318,0,0,1-.315-.318.338.338,0,0,1,.318-.315h1.894a.318.318,0,0,1,0,.632Zm-6.3-.037h-1.891a.318.318,0,0,1,0-.632h1.894a.318.318,0,0,1,0,.632Zm-6.3-.037h-1.891a.318.318,0,0,1-.315-.318.323.323,0,0,1,.318-.315h1.891a.318.318,0,0,1,0,.632Zm-6.3-.037h-1.894a.318.318,0,0,1,0-.632h1.891a.318.318,0,0,1,0,.632Zm-6.31-.037h-1.894a.318.318,0,0,1,0-.632h1.891a.318.318,0,0,1,0,.632Zm-6.312-.037h-1.894a.318.318,0,0,1,0-.632h1.891a.318.318,0,0,1,0,.632Zm-6.31-.037h-1.894a.318.318,0,1,1,0-.632h1.894a.318.318,0,0,1,0,.632Zm-6.3-.037H589.63a.318.318,0,0,1,0-.632h1.894a.318.318,0,0,1,0,.632Zm-6.31-.037H583.32a.318.318,0,0,1,0-.632h1.891a.318.318,0,0,1,0,.632Zm-6.3-.037h-1.891a.318.318,0,0,1,0-.632h1.891a.318.318,0,0,1,0,.632Zm-6.3-.037h-1.894a.318.318,0,0,1,0-.632h1.891a.318.318,0,0,1,0,.632Zm-6.312-.037h-1.894a.318.318,0,0,1,0-.632h1.891a.318.318,0,0,1,0,.632Zm-6.3-.037h-1.894a.318.318,0,0,1-.315-.318.343.343,0,0,1,.318-.315h1.894a.318.318,0,0,1,0,.632Zm-6.31-.037h-1.891a.318.318,0,1,1,0-.632h1.894a.318.318,0,0,1,0,.632Zm-6.3-.037h-1.891a.318.318,0,0,1-.315-.318.329.329,0,0,1,.318-.315h1.894a.318.318,0,0,1,0,.632Zm-6.3-.037h-1.891a.318.318,0,0,1,0-.632h1.891a.318.318,0,0,1,0,.632Zm212.512-.034a.312.312,0,0,1-.286-.215.318.318,0,0,1,.2-.4c.572-.195,1.176-.415,1.748-.658a.318.318,0,0,1,.243.572c-.572.246-1.19.472-1.794.675a.383.383,0,0,1-.383.02Zm-218.821,0h-1.894a.312.312,0,0,1-.312-.318.32.32,0,0,1,.318-.315h1.891a.318.318,0,0,1,0,.632Zm-6.3-.037h-1.894a.318.318,0,0,1,0-.632h1.891a.318.318,0,0,1,0,.632Zm-6.312-.037H520.3a.318.318,0,0,1,0-.632H522.2a.318.318,0,0,1,0,.632Zm-6.3-.037h-1.894a.318.318,0,1,1,0-.632H515.9a.318.318,0,0,1,0,.632Zm-6.31-.037H507.7a.318.318,0,1,1,0-.632h1.894a.318.318,0,0,1,0,.632Zm-6.3-.037H501.4a.318.318,0,0,1,0-.632H503.3a.318.318,0,0,1,0,.632Zm-6.3-.072h-.014c-.632-.031-1.273-.08-1.906-.149a.318.318,0,0,1-.286-.346.312.312,0,0,1,.346-.286c.621.066,1.25.115,1.869.146a.315.315,0,1,1,0,.63Zm-6.235-.9h-.074c-.615-.146-1.236-.315-1.843-.5a.315.315,0,0,1,.183-.6c.6.177,1.2.343,1.808.489a.315.315,0,0,1-.074.621Zm268.583-1.582a.309.309,0,0,1-.263-.143.315.315,0,0,1,.089-.435c.521-.341,1.033-.707,1.522-1.085a.315.315,0,1,1,.386.5c-.5.389-1.027.764-1.562,1.113a.286.286,0,0,1-.5.043Zm-274.54-.461a.287.287,0,0,1-.129-.029c-.572-.26-1.145-.541-1.717-.833a.32.32,0,0,1,.286-.572c.552.286,1.119.572,1.683.818a.315.315,0,0,1-.129.6Zm-5.468-3.116a.338.338,0,0,1-.183-.057c-.518-.363-1.033-.747-1.531-1.145a.312.312,0,0,1-.052-.441.318.318,0,0,1,.443-.054c.489.386.993.761,1.5,1.119a.318.318,0,0,1-.18.572Zm284.464-.541a.308.308,0,0,1-.209-.08.318.318,0,0,1-.026-.446c.415-.458.816-.944,1.193-1.431a.315.315,0,1,1,.5.383c-.386.506-.8,1-1.225,1.477A.309.309,0,0,1,763.8,940.376ZM474.22,936.825a.312.312,0,0,1-.226-.094c-.444-.452-.878-.927-1.3-1.405a.316.316,0,0,1,.478-.415c.406.469.836.933,1.27,1.379a.315.315,0,0,1-.226.535ZM767.351,935.2a.318.318,0,0,1-.286-.458c.286-.552.544-1.125.778-1.7a.315.315,0,0,1,.572.24c-.243.572-.512,1.173-.8,1.74a.312.312,0,0,1-.272.175Zm-297.094-3.274a.312.312,0,0,1-.263-.14c-.352-.532-.693-1.079-1.01-1.625a.312.312,0,0,1,.112-.429.318.318,0,0,1,.432.112c.315.538.647,1.073.993,1.594a.32.32,0,0,1-.089.438A.327.327,0,0,1,470.257,931.923Zm299.175-2.661h-.066a.315.315,0,0,1-.243-.375c.1-.461.18-.936.252-1.411l.063-.435a.318.318,0,0,1,.627.092l-.066.438c-.072.486-.16.973-.26,1.448a.309.309,0,0,1-.306.243Zm-302.145-2.907a.318.318,0,0,1-.286-.192c-.243-.572-.475-1.187-.687-1.788a.312.312,0,0,1,.192-.4.32.32,0,0,1,.4.192c.206.589.435,1.179.675,1.754a.315.315,0,0,1-.172.412A.287.287,0,0,1,467.287,926.354Zm303.1-3.331h-.046a.315.315,0,0,1-.269-.355c.086-.618.172-1.242.258-1.877a.318.318,0,0,1,.627.086c-.086.635-.172,1.259-.258,1.877a.318.318,0,0,1-.312.269Zm-304.969-2.678a.312.312,0,0,1-.306-.252c-.132-.624-.243-1.256-.338-1.88a.315.315,0,0,1,.624-.094c.092.612.2,1.233.329,1.846a.312.312,0,0,1-.243.372.26.26,0,0,1-.066.009Zm305.8-3.574h-.04a.318.318,0,0,1-.286-.352l.237-1.88a.316.316,0,1,1,.627.077l-.237,1.88a.318.318,0,0,1-.3.272Zm-306.5-2.687a.315.315,0,0,1-.315-.3l-.06-1.894a.315.315,0,0,1,.306-.323.3.3,0,0,1,.323.3l.063,1.891a.318.318,0,0,1-.306.326Zm307.261-3.58h-.037a.315.315,0,0,1-.286-.349q.112-.93.215-1.88a.318.318,0,0,1,.63.072q-.106.95-.217,1.883a.312.312,0,0,1-.3.272Zm-307.464-2.727a.315.315,0,0,1-.3-.309l-.06-1.891a.318.318,0,0,1,.306-.326.312.312,0,0,1,.323.306l.063,1.891a.318.318,0,0,1-.306.326Zm308.166-3.548h-.031a.315.315,0,0,1-.286-.346q.1-.936.195-1.883a.315.315,0,0,1,.627.063q-.094.95-.192,1.886a.318.318,0,0,1-.312.28Zm-308.366-2.77a.312.312,0,0,1-.315-.306l-.063-1.891a.316.316,0,0,1,.632-.02l.06,1.891a.318.318,0,0,1-.306.326Zm308.972-3.52h-.029a.315.315,0,0,1-.286-.343q.092-.936.172-1.883a.316.316,0,0,1,.63.054q-.086.947-.172,1.889a.315.315,0,0,1-.315.292ZM464.1,895.164a.312.312,0,0,1-.315-.306l-.063-1.891a.316.316,0,0,1,.632-.02l.06,1.891a.318.318,0,0,1-.306.326Zm309.714-3.505h-.026a.315.315,0,0,1-.286-.34l.149-1.886a.312.312,0,0,1,.338-.286.318.318,0,0,1,.286.341l-.149,1.889a.315.315,0,0,1-.312.283ZM463.9,888.869a.315.315,0,0,1-.315-.306l-.063-1.891a.318.318,0,1,1,.632-.02l.06,1.891a.318.318,0,0,1-.3.326ZM774.3,885.381h-.02a.318.318,0,0,1-.286-.338l.126-1.889a.315.315,0,1,1,.63.043l-.126,1.889a.315.315,0,0,1-.323.28Zm-310.6-2.819a.315.315,0,0,1-.315-.306l-.06-1.891a.315.315,0,1,1,.63-.02l.06,1.891a.315.315,0,0,1-.3.326Zm310.978-3.494h0a.315.315,0,0,1-.286-.332q.051-.939.1-1.889a.31.31,0,0,1,.618.046c-.031.635-.069,1.265-.1,1.891a.318.318,0,0,1-.332.283Zm-311.193-2.827a.315.315,0,0,1-.315-.306l-.06-1.891a.315.315,0,1,1,.63-.02l.06,1.891a.315.315,0,0,1-.3.326Zm311.5-3.477h-.014a.315.315,0,0,1-.286-.329l.077-1.891a.308.308,0,1,1,.615.026q-.034.95-.077,1.891a.315.315,0,0,1-.3.3Zm-311.708-2.83a.315.315,0,0,1-.315-.306l-.06-1.891a.315.315,0,0,1,.3-.326.321.321,0,0,1,.326.306l.06,1.891a.312.312,0,0,1-.3.326Zm311.937-3.477h0a.318.318,0,0,1-.306-.326l.052-1.891a.315.315,0,0,1,.63.017c0,.632-.031,1.262-.052,1.894a.318.318,0,0,1-.312.306Zm-312.129-2.83a.315.315,0,0,1-.315-.306l-.06-1.891a.317.317,0,0,1,.632-.031l.063,1.891a.318.318,0,0,1-.306.326Zm312.28-3.48h0a.315.315,0,0,1-.309-.32c0-.63.017-1.262.023-1.891a.34.34,0,0,1,.321-.315.318.318,0,0,1,.312.32q0,.95-.026,1.894a.317.317,0,0,1-.32.312Zm-312.475-2.827a.318.318,0,0,1-.318-.306l-.06-1.891a.315.315,0,1,1,.63-.02l.063,1.891a.318.318,0,0,1-.306.326Zm312.529-3.485a.315.315,0,0,1-.315-.315v-1.889a.318.318,0,0,1,.315-.318h0a.315.315,0,0,1,.315.315v1.891a.318.318,0,0,1-.32.315Zm-312.733-2.821a.318.318,0,0,1-.318-.306l-.06-1.891a.318.318,0,0,1,.306-.326.306.306,0,0,1,.326.306l.06,1.891a.318.318,0,0,1-.306.326Zm312.687-3.485a.315.315,0,0,1-.315-.312c0-.627-.02-1.259-.034-1.889a.318.318,0,0,1,.309-.323.326.326,0,0,1,.323.309q.017.95.031,1.894a.315.315,0,0,1-.309.32Zm-312.89-2.821a.312.312,0,0,1-.315-.306l-.063-1.891a.316.316,0,1,1,.632-.02l.06,1.891a.318.318,0,0,1-.306.326Zm312.741-3.485a.315.315,0,0,1-.315-.306l-.063-1.889a.312.312,0,0,1,.3-.326.306.306,0,0,1,.326.3c.023.63.046,1.262.066,1.891a.318.318,0,0,1-.306.326ZM462.279,838.4a.315.315,0,0,1-.315-.306l-.049-1.877a.315.315,0,0,1,.63-.02l.06,1.891a.315.315,0,0,1-.3.326Zm312.684-3.482a.318.318,0,0,1-.315-.3l-.1-1.889a.315.315,0,0,1,.286-.332.321.321,0,0,1,.332.286q.051.947.1,1.891a.318.318,0,0,1-.3.332Zm-312.887-2.824a.318.318,0,0,1-.315-.306l-.06-1.891a.315.315,0,1,1,.63-.023l.06,1.894a.318.318,0,0,1-.3.326ZM774.6,828.62a.315.315,0,0,1-.315-.286q-.066-.944-.135-1.886a.315.315,0,0,1,.286-.338.309.309,0,0,1,.338.286q.069.944.134,1.889a.315.315,0,0,1-.286.335Zm-312.73-2.833a.318.318,0,0,1-.315-.306l-.06-1.891a.315.315,0,1,1,.63-.023l.06,1.894a.312.312,0,0,1-.3.323Zm312.232-3.46a.315.315,0,0,1-.315-.286c-.054-.63-.112-1.256-.172-1.886a.316.316,0,1,1,.629-.057l.172,1.886a.318.318,0,0,1-.286.343Zm-312.443-2.861a.315.315,0,0,1-.315-.3l-.06-1.894a.315.315,0,1,1,.63-.02l.063,1.894a.315.315,0,0,1-.306.323Zm311.825-3.434a.318.318,0,0,1-.315-.286c-.069-.627-.137-1.253-.212-1.88a.318.318,0,0,1,.286-.349.315.315,0,0,1,.349.286c.074.627.143,1.256.212,1.883a.315.315,0,0,1-.286.349Zm-312.02-2.861a.315.315,0,0,1-.315-.3l-.072-2.218h1.145a.315.315,0,0,1,0,.63h-.5l.052,1.568a.315.315,0,0,1-.306.323Zm309.957-1.891h-1.9a.315.315,0,0,1,0-.63h1.894a.315.315,0,0,1,0,.63Zm-6.31,0h-1.883a.315.315,0,0,1,0-.63h1.894a.315.315,0,0,1,0,.63Zm-6.3,0h-1.894a.315.315,0,0,1,0-.63h1.894a.315.315,0,0,1,0,.63Zm-6.312,0h-1.891a.315.315,0,0,1,0-.63h1.891a.315.315,0,0,1,0,.63Zm-6.3,0h-1.891a.315.315,0,0,1,0-.63h1.891a.315.315,0,0,1,0,.63Zm-6.31,0h-1.894a.315.315,0,0,1,0-.63H739.9a.315.315,0,0,1,0,.63Zm-6.3,0h-1.894a.315.315,0,1,1,0-.63h1.894a.315.315,0,0,1,0,.63Zm-6.3,0h-1.894a.315.315,0,0,1,0-.63h1.894a.315.315,0,0,1,0,.63Zm-6.312,0h-1.891a.315.315,0,0,1,0-.63H721a.315.315,0,0,1,0,.63Zm-6.3,0h-1.891a.315.315,0,0,1,0-.63H714.7a.315.315,0,0,1,0,.63Zm-6.31,0H706.5a.315.315,0,0,1,0-.63h1.894a.315.315,0,0,1,0,.63Zm-6.3,0H700.2a.315.315,0,0,1,0-.63H702.1a.315.315,0,0,1,0,.63Zm-6.3,0h-1.894a.315.315,0,0,1,0-.63H695.7a.315.315,0,0,1,0,.63Zm-6.312,0H687.6a.315.315,0,0,1,0-.63H689.4a.315.315,0,0,1,0,.63Zm-6.3,0H681.3a.315.315,0,0,1,0-.63h1.891a.315.315,0,0,1,0,.63Zm-6.31,0h-1.891a.315.315,0,0,1,0-.63h1.891a.315.315,0,0,1,0,.63Zm-6.3,0H668.7a.315.315,0,1,1,0-.63h1.894a.315.315,0,0,1,0,.63Zm-6.3,0H662.4a.315.315,0,0,1,0-.63h1.894a.315.315,0,0,1,0,.63Zm-6.3,0H656.1a.315.315,0,1,1,0-.63H658a.315.315,0,0,1,0,.63Zm-6.312,0h-2.057a.315.315,0,0,1,0-.63h1.891a.315.315,0,0,1,0,.63Zm-6.31,0h-2.043a.315.315,0,0,1,0-.63h1.891a.315.315,0,0,1,0,.63Zm-6.3,0h-1.894a.315.315,0,1,1,0-.63h1.894a.315.315,0,0,1,0,.63Zm-6.3,0h-1.894a.315.315,0,1,1,0-.63h1.894a.315.315,0,0,1,0,.63Zm-6.3,0H624.6a.315.315,0,0,1,0-.63h1.894a.315.315,0,0,1,0,.63Zm-6.312,0h-1.891a.315.315,0,1,1,0-.63h1.891a.315.315,0,0,1,0,.63Zm-6.3,0h-1.891a.315.315,0,1,1,0-.63h1.891a.315.315,0,0,1,0,.63Zm-6.31,0H605.68a.315.315,0,0,1,0-.63h1.894a.315.315,0,1,1,0,.63Zm-6.3,0h-1.894a.315.315,0,0,1,0-.63h1.894a.315.315,0,0,1,0,.63Zm-6.31,0h-1.894a.315.315,0,0,1,0-.63h1.894a.315.315,0,1,1,0,.63Zm-6.312,0h-1.891a.315.315,0,0,1,0-.63h1.891a.315.315,0,0,1,0,.63Zm-6.3,0H580.47a.315.315,0,0,1,0-.63h1.891a.315.315,0,0,1,0,.63Zm-6.31,0h-2.137a.315.315,0,0,1,0-.63H575.8a.315.315,0,0,1,0,.63Zm-6.3,0h-1.894a.315.315,0,0,1,0-.63h1.646a.315.315,0,0,1,0,.63Zm-6.31,0H561.3a.315.315,0,0,1,0-.63h1.894a.315.315,0,0,1,0,.63Zm-6.312,0h-1.891a.315.315,0,0,1,0-.63h1.891a.315.315,0,0,1,0,.63Zm-6.31,0h-2.149a.315.315,0,0,1,0-.63h1.891a.315.315,0,1,1,0,.63Zm-6.3,0h-1.894a.315.315,0,0,1,0-.63h1.894a.315.315,0,0,1,0,.63Zm-6.3,0H536.34a.315.315,0,1,1,0-.63h1.894a.315.315,0,0,1,0,.63Zm-6.31,0h-2.192a.315.315,0,0,1,0-.63h1.894a.315.315,0,0,1,0,.63Zm-6.312,0h-2.175a.315.315,0,0,1,0-.63h1.891a.315.315,0,0,1,0,.63Zm-6.31,0h-1.891a.315.315,0,1,1,0-.63H519.3a.315.315,0,0,1,0,.63Zm-6.3,0h-1.891a.315.315,0,1,1,0-.63h1.891a.315.315,0,1,1,0,.63Zm-6.3,0h-1.894a.315.315,0,1,1,0-.63h1.894a.315.315,0,1,1,0,.63Zm-6.31,0h-1.894a.315.315,0,1,1,0-.63H500.4a.315.315,0,0,1,0,.63Zm-6.3,0h-1.894a.315.315,0,0,1,0-.63h1.894a.315.315,0,1,1,0,.63Zm-6.312,0H485.9a.315.315,0,1,1,0-.63h1.891a.315.315,0,0,1,0,.63Zm-6.3,0h-1.891a.315.315,0,1,1,0-.63H481.5a.315.315,0,1,1,0,.63Zm-6.31,0H473.3a.315.315,0,1,1,0-.63h1.894a.315.315,0,1,1,0,.63Zm-6.31,0h-1.894a.315.315,0,1,1,0-.63h1.894a.315.315,0,0,1,0,.63Z" transform="translate(-329.142 -578.683)"/><path class="l" d="M700.52,502.726l.784-8.37a6.433,6.433,0,0,1,4.865-3.757c8.1-1.288,28.177-3.554,37.846,3.671L745.445,504Z" transform="translate(-500.066 -349.23)"/><path class="l" d="M765.3,430.656a11.636,11.636,0,0,1-5.6,0,5.065,5.065,0,0,1-3.86-4.9V399.54h13.337v26.188a5.082,5.082,0,0,1-3.874,4.927Z" transform="translate(-539.557 -285.212)"/><path class="l" d="M1152,502.7l.781-8.37a6.444,6.444,0,0,1,4.876-3.769c8.1-1.288,28.177-3.554,37.843,3.671l1.431,9.729Z" transform="translate(-822.356 -349.201)"/><path class="l" d="M1216.763,423.767a11.635,11.635,0,0,1-5.6,0,5.065,5.065,0,0,1-3.86-4.9V389.89h13.337v28.95A5.082,5.082,0,0,1,1216.763,423.767Z" transform="translate(-861.832 -278.323)"/><path class="j" d="M733.853,315.212l143.435-4.75a6.911,6.911,0,0,0,6.607-5.674,58.5,58.5,0,0,0,.446-18.182,16.542,16.542,0,0,0-16.024-14c-26.758-.638-94.876-.618-132.421,14.233a13.108,13.108,0,0,0-7.921,9.1,31.792,31.792,0,0,0-.343,14.565A6.172,6.172,0,0,0,733.853,315.212Z" transform="translate(-518.923 -194.457)"/><path class="k" d="M740.582,330.22a.627.627,0,0,1-.627-.572,33.612,33.612,0,0,1,.858-10.808,11.955,11.955,0,0,1,8.144-8.278c7.992-2.344,23.261-6.33,35.737-6.682a.632.632,0,0,1,.034,1.262c-12.333.346-27.485,4.292-35.417,6.63a10.693,10.693,0,0,0-7.282,7.4,33.156,33.156,0,0,0-.821,10.353.627.627,0,0,1-.572.69Z" transform="translate(-528.136 -216.925)"/><path class="j" d="M429.644,523.107c46.356-.592,246.8-2.7,305.035,4.327a11.855,11.855,0,0,1,10.19,9.182c3.434,15.555,10.362,51.69,9.543,87.51a10.382,10.382,0,0,1-8.5,9.9L612.995,659.168H565.78L424.136,631.025a11.071,11.071,0,0,1-8.931-10.281c-.921-18.027-2.361-60.3,2.515-87.519A12.25,12.25,0,0,1,429.644,523.107Z" transform="translate(-295.726 -372.879)"/><path class="k" d="M639.671,675.985h-1.894a.315.315,0,0,1,0-.63h1.894a.315.315,0,1,1,0,.63Zm-6.312,0h-1.891a.315.315,0,0,1,0-.63h1.891a.315.315,0,0,1,0,.63Zm-6.3,0h-1.891a.315.315,0,0,1,0-.63h1.891a.315.315,0,0,1,0,.63Zm-6.3,0h-1.891a.315.315,0,0,1,0-.63h1.891a.315.315,0,0,1,0,.63Zm-6.31,0h-1.894a.315.315,0,0,1,0-.63h1.894a.315.315,0,0,1,0,.63Zm-6.3,0h-1.937a.315.315,0,0,1,0-.63h1.894a.315.315,0,1,1,0,.63Zm-6.3,0H599.93a.315.315,0,0,1,0-.63h1.894a.315.315,0,0,1,0,.63Zm-6.312,0h-.824l-1.917-.375a.315.315,0,0,1,.123-.618l1.857.369h.761a.315.315,0,0,1,0,.63ZM644,675.169a.315.315,0,0,1-.057-.627l1.86-.352a.316.316,0,0,1,.117.621l-1.86.352Zm-55.513-.415a.216.216,0,0,1-.06,0l-1.857-.372a.315.315,0,1,1,.123-.618l1.857.369a.318.318,0,0,1,.246.372A.312.312,0,0,1,588.484,674.754ZM650.209,674a.315.315,0,0,1-.057-.627l1.86-.352a.316.316,0,0,1,.117.621l-1.86.352Zm-67.912-.472a.222.222,0,0,1-.063,0l-1.857-.369a.315.315,0,0,1,.123-.618l1.857.369a.315.315,0,0,1-.06.624Zm74.113-.7a.315.315,0,0,1-.057-.627l1.86-.352a.316.316,0,0,1,.115.621l-1.86.352Zm-80.3-.526a.242.242,0,0,1-.063,0l-1.869-.378a.315.315,0,1,1,.123-.618l1.857.369a.315.315,0,0,1,.249.372A.32.32,0,0,1,576.108,672.3Zm86.5-.647a.315.315,0,0,1-.06-.627l1.86-.352a.316.316,0,0,1,.117.621l-1.86.352Zm-92.692-.572a.236.236,0,0,1-.063,0L568,670.708a.315.315,0,0,1,.123-.618l1.857.369a.315.315,0,0,1,.249.372.321.321,0,0,1-.309.235Zm98.89-.589a.315.315,0,0,1-.057-.627l1.86-.352a.316.316,0,0,1,.117.621l-1.86.352Zm-105.08-.641h-.063l-1.857-.366a.318.318,0,0,1,.123-.621l1.857.369a.315.315,0,0,1,.249.372.32.32,0,0,1-.309.235Zm111.281-.532a.315.315,0,0,1-.057-.627l1.86-.352a.316.316,0,1,1,.117.621l-1.86.352Zm-117.47-.7h-.063l-1.854-.369a.318.318,0,1,1,.123-.621L557.6,668a.318.318,0,0,1-.06.627Zm123.671-.475a.315.315,0,0,1-.057-.627l1.86-.352a.316.316,0,1,1,.114.621l-1.857.352Zm-129.86-.755h-.06l-1.857-.369a.33.33,0,1,1,.135-.647l1.854.366a.318.318,0,0,1-.06.627Zm136.061-.418a.318.318,0,0,1-.06-.627l1.86-.349a.315.315,0,1,1,.117.618l-1.86.352Zm-142.25-.824h-.06l-1.857-.369a.315.315,0,1,1,.123-.618l1.857.369a.315.315,0,0,1-.063.624Zm148.451-.346a.315.315,0,0,1-.06-.624l1.86-.352a.315.315,0,1,1,.117.618l-1.86.352A.207.207,0,0,1,693.613,665.8Zm-154.641-.858h-.06l-1.857-.369a.315.315,0,1,1,.123-.618l1.857.369a.315.315,0,0,1-.063.624Zm160.839-.3a.315.315,0,0,1-.057-.624l1.86-.352a.315.315,0,1,1,.117.618l-1.86.352a.215.215,0,0,1-.06-.02Zm-167.025-.927h-.063l-1.857-.369a.315.315,0,1,1,.123-.618l1.857.369a.315.315,0,0,1-.06.624Zm173.226-.246a.315.315,0,0,1-.057-.624l1.86-.352a.315.315,0,0,1,.117.618l-1.86.352a.215.215,0,0,1-.06-.02ZM526.6,662.479h-.063l-1.86-.4a.315.315,0,0,1-.246-.372.309.309,0,0,1,.369-.246l1.857.369a.315.315,0,0,1-.06.624Zm185.616-.189a.315.315,0,0,1-.06-.624l1.86-.352a.315.315,0,1,1,.117.618l-1.86.352a.193.193,0,0,1-.057-.02Zm-191.806-1.07h-.063l-1.857-.369a.318.318,0,0,1-.246-.372.312.312,0,0,1,.369-.246l1.857.369a.315.315,0,0,1-.06.624Zm198.015-.132a.315.315,0,0,1-.06-.624l1.86-.352a.316.316,0,1,1,.117.621l-1.86.352Zm-204.2-1.1a.244.244,0,0,1-.063,0l-1.857-.369a.318.318,0,0,1-.246-.372.312.312,0,0,1,.369-.246l1.857.369a.315.315,0,0,1-.06.624Zm210.394-.072a.315.315,0,0,1-.057-.627l1.846-.361a.316.316,0,0,1,.117.621l-1.86.352Zm-216.583-1.159a.247.247,0,0,1-.063,0l-1.854-.369a.315.315,0,1,1,.123-.618l1.854.369a.313.313,0,0,1-.069.621Zm222.784,0a.315.315,0,0,1-.057-.627l1.86-.352a.316.316,0,0,1,.117.621l-1.86.352Zm6.2-1.173a.318.318,0,0,1-.06-.627l1.86-.352a.316.316,0,0,1,.117.621l-1.86.352Zm-235.175-.043a.247.247,0,0,1-.063,0l-1.854-.369a.315.315,0,0,1,.123-.618l1.857.369a.318.318,0,0,1,.246.372.312.312,0,0,1-.318.235ZM743.222,656.4a.315.315,0,0,1-.06-.627l1.86-.352a.316.316,0,1,1,.117.621l-1.86.352Zm-247.565-.1a.213.213,0,0,1-.06,0l-1.857-.369a.315.315,0,0,1,.123-.618l1.857.369a.318.318,0,0,1,.246.372.312.312,0,0,1-.318.249Zm253.763-1.073a.315.315,0,0,1-.057-.627l1.86-.352a.316.316,0,0,1,.117.621l-1.86.352Zm-259.952-.157a.213.213,0,0,1-.06,0l-1.857-.369a.315.315,0,1,1,.123-.618l1.857.369a.318.318,0,0,1,.246.372.312.312,0,0,1-.318.249Zm266.144-1a.315.315,0,0,1-.057-.627l1.86-.352a.318.318,0,0,1,.366.252.312.312,0,0,1-.249.369l-1.86.352Zm-272.34-.212a.222.222,0,0,1-.063,0l-1.857-.366a.318.318,0,1,1,.123-.621l1.857.369a.318.318,0,0,1-.06.627Zm278.54-.961a.318.318,0,0,1-.06-.627l1.86-.352a.316.316,0,0,1,.117.621l-1.86.352Zm-284.718-.269h-.063l-1.863-.386a.317.317,0,0,1,.123-.621l1.857.369a.315.315,0,0,1,.249.372.321.321,0,0,1-.315.255Zm290.931-.9a.315.315,0,0,1-.06-.624l1.86-.355a.316.316,0,0,1,.117.621l-1.86.352Zm-297.132-.338h-.063l-1.857-.369a.318.318,0,0,1,.123-.621l1.857.369a.315.315,0,0,1,.249.372A.32.32,0,0,1,470.894,651.382Zm-6.189-1.23h-.063l-1.857-.378a.318.318,0,0,1,.123-.621l1.857.369a.318.318,0,0,1-.06.627Zm-6.189-1.236h-.063l-1.854-.369a.315.315,0,0,1-.249-.372.312.312,0,0,1,.372-.246l1.854.366a.313.313,0,0,1-.06.621Zm312.275-1.256h0a.315.315,0,0,1-.315-.315v-1.891a.318.318,0,0,1,.315-.318h0a.315.315,0,0,1,.315.315v1.9a.318.318,0,0,1-.315.318Zm-316.481-1.685a.318.318,0,0,1-.315-.286c-.029-.607-.057-1.239-.086-1.891a.315.315,0,1,1,.63-.029c.029.652.057,1.285.089,1.891a.318.318,0,0,1-.3.329Zm316.438-4.624a.318.318,0,0,1-.318-.309q-.017-.944-.043-1.889a.318.318,0,0,1,.309-.323.3.3,0,0,1,.323.306l.043,1.894a.315.315,0,0,1-.309.32Zm-316.71-1.68a.321.321,0,0,1-.315-.3l-.072-1.894a.318.318,0,0,1,.63,0l.072,1.891a.318.318,0,0,1-.3.329Zm316.515-4.621a.32.32,0,0,1-.315-.3q-.04-.944-.083-1.886a.315.315,0,0,1,.3-.329.309.309,0,0,1,.329.286q.049.944.086,1.889a.315.315,0,0,1-.3.326Zm-316.73-1.688a.318.318,0,0,1-.318-.306l-.054-1.891a.318.318,0,1,1,.632-.02l.054,1.894a.315.315,0,0,1-.306.323Zm316.407-4.61a.318.318,0,0,1-.315-.286c-.037-.63-.08-1.259-.12-1.889a.312.312,0,0,1,.286-.335.32.32,0,0,1,.338.286c.04.63.083,1.262.12,1.891a.312.312,0,0,1-.286.335Zm-316.573-1.694a.318.318,0,0,1-.318-.306l-.037-1.894a.318.318,0,1,1,.632,0l.037,1.894a.315.315,0,0,1-.309.32Zm316.123-4.6a.318.318,0,0,1-.315-.286c-.052-.632-.1-1.259-.157-1.886a.321.321,0,0,1,.286-.343.315.315,0,0,1,.341.286q.083.941.157,1.889a.315.315,0,0,1-.286.341Zm-316.229-1.717a.315.315,0,0,1-.315-.312l-.02-1.894a.312.312,0,0,1,.312-.318h0a.315.315,0,0,1,.315.312l.02,1.894A.315.315,0,0,1,453.551,620.741Zm315.668-4.578a.318.318,0,0,1-.315-.286q-.092-.944-.189-1.883a.315.315,0,1,1,.627-.063c.066.627.129,1.253.192,1.886a.318.318,0,0,1-.286.343Zm-315.711-1.725a.318.318,0,0,1-.318-.318v-1.891a.318.318,0,0,1,.318-.315h0a.315.315,0,0,1,.315.315v1.891a.318.318,0,0,1-.315.318Zm315.05-4.544a.318.318,0,0,1-.315-.286q-.106-.944-.22-1.88a.315.315,0,0,1,.286-.349.309.309,0,0,1,.349.286c.074.624.149,1.253.22,1.883a.315.315,0,0,1-.286.349Zm-315.022-1.766h0a.318.318,0,0,1-.315-.318q0-.944.023-1.891a.315.315,0,0,1,.315-.312h0a.318.318,0,0,1,.312.32q0,.944-.02,1.889a.318.318,0,0,1-.32.312Zm314.252-4.5a.315.315,0,0,1-.312-.286c-.083-.63-.166-1.256-.249-1.874a.315.315,0,1,1,.624-.086q.129.933.252,1.877a.318.318,0,0,1-.286.355Zm-314.16-1.806h0a.318.318,0,0,1-.309-.323c.014-.63.031-1.262.046-1.891a.306.306,0,0,1,.323-.309.318.318,0,0,1,.309.323q-.026.95-.046,1.891A.318.318,0,0,1,453.628,601.821Zm313.29-4.447a.317.317,0,0,1-.312-.286q-.137-.944-.286-1.871a.318.318,0,0,1,.627-.094c.092.621.183,1.245.286,1.877a.315.315,0,0,1-.266.358Zm-313.11-1.863h0a.315.315,0,0,1-.3-.326q.034-.95.074-1.894a.326.326,0,0,1,.326-.3.315.315,0,0,1,.3.329c-.026.63-.051,1.259-.072,1.891A.321.321,0,0,1,453.808,595.511Zm312.154-4.378a.318.318,0,0,1-.312-.266c-.1-.63-.2-1.253-.3-1.869a.316.316,0,1,1,.624-.1c.1.615.2,1.239.3,1.869a.318.318,0,0,1-.26.363ZM454.089,589.2h-.017a.315.315,0,0,1-.286-.332q.052-.947.106-1.894a.315.315,0,0,1,.63.034q-.054.944-.106,1.894A.315.315,0,0,1,454.089,589.2Zm310.827-4.292a.315.315,0,0,1-.309-.26c-.112-.632-.22-1.253-.332-1.863a.315.315,0,1,1,.621-.112c.112.612.22,1.233.332,1.866a.315.315,0,0,1-.258.363.166.166,0,0,1-.054,0Zm-310.429-2h-.026a.312.312,0,0,1-.286-.338q.069-.95.143-1.889a.316.316,0,1,1,.63.049c-.052.627-.1,1.256-.146,1.886a.312.312,0,0,1-.315.283ZM763.779,578.7a.315.315,0,0,1-.309-.258c-.12-.632-.24-1.253-.358-1.857a.315.315,0,1,1,.618-.123q.18.91.361,1.863a.318.318,0,0,1-.252.369Zm-308.755-2.086h-.031a.315.315,0,0,1-.286-.343c.06-.635.126-1.262.192-1.889a.315.315,0,1,1,.627.069c-.066.621-.129,1.25-.192,1.88a.315.315,0,0,1-.312.283Zm307.527-4.1a.312.312,0,0,1-.306-.252q-.2-.961-.389-1.851a.316.316,0,1,1,.618-.132q.189.893.389,1.857a.318.318,0,0,1-.246.372A.26.26,0,0,1,762.552,572.513Zm-306.821-2.175h-.04a.312.312,0,0,1-.272-.352q.12-.947.255-1.88a.318.318,0,0,1,.358-.269.312.312,0,0,1,.266.358q-.129.927-.255,1.871A.312.312,0,0,1,455.731,570.338Zm304.8-3.331h-.037q-.91-.106-1.877-.212a.319.319,0,1,1,.063-.635q.97.1,1.883.212a.315.315,0,1,1-.037.63Zm-6.275-.655h-.029q-.924-.086-1.886-.169a.316.316,0,0,1,.054-.63l1.889.169a.315.315,0,1,1-.029.63Zm-6.3-.529h-.023l-1.886-.14a.316.316,0,0,1,.043-.63l1.891.14a.315.315,0,1,1-.026.63Zm-6.3-.443h-.02l-1.889-.123a.315.315,0,1,1,.04-.63l1.889.123a.315.315,0,1,1-.02.63Zm-6.3-.383h-.017l-1.891-.106a.315.315,0,0,1,.034-.63l1.891.106a.315.315,0,0,1-.017.63Zm-6.3-.335h-.017l-1.891-.092a.318.318,0,0,1,.031-.632l1.891.094a.315.315,0,0,1,0,.63Zm-6.3-.286h0l-1.891-.08a.315.315,0,0,1-.286-.329.323.323,0,0,1,.329-.3l1.891.083a.315.315,0,0,1,0,.63Zm-6.3-.26h0l-1.891-.072a.315.315,0,1,1,.026-.63l1.891.072a.318.318,0,0,1,0,.632Zm-259.789,0h-.054a.32.32,0,0,1-.258-.366l.106-.6a1.116,1.116,0,0,1,1.09-.936h.137a.286.286,0,0,1,.323.309.323.323,0,0,1-.312.323h-.163a.489.489,0,0,0-.481.418l-.1.592a.318.318,0,0,1-.306.237Zm253.482-.232h0l-1.891-.066a.318.318,0,0,1-.306-.326.312.312,0,0,1,.326-.3l1.891.066a.315.315,0,0,1,0,.63Zm-6.3-.212h0l-1.891-.06a.312.312,0,0,1-.306-.323.32.32,0,0,1,.326-.306l1.891.06a.315.315,0,0,1,0,.63Zm-6.31-.192h0l-1.891-.052a.318.318,0,0,1-.306-.326.306.306,0,0,1,.323-.306l1.891.054a.315.315,0,1,1,0,.63Zm-6.3-.172h0l-1.891-.049a.318.318,0,0,1-.309-.323.306.306,0,0,1,.323-.306l1.894.049a.315.315,0,1,1,0,.63Zm-6.3-.155h0l-1.891-.046a.315.315,0,0,1-.309-.32.3.3,0,0,1,.323-.309l1.894.043a.318.318,0,0,1,0,.632Zm-6.3-.143h0l-1.891-.037a.318.318,0,0,1-.309-.323.326.326,0,0,1,.321-.309l1.894.04a.315.315,0,0,1,0,.63Zm-6.3-.126h0l-1.891-.037a.315.315,0,0,1-.309-.32.286.286,0,0,1,.321-.309l1.894.034a.318.318,0,0,1,0,.632Zm-210.242-.1a.315.315,0,1,1,0-.63l1.891-.023a.329.329,0,0,1,.32.312.312.312,0,0,1-.312.318l-1.894.023ZM666,562.767h0l-1.894-.031a.318.318,0,0,1,0-.632h0l1.891.031a.309.309,0,1,1,0,.618Zm-197.537-.057a.315.315,0,0,1,0-.63l1.894-.023a.3.3,0,0,1,.318.312.315.315,0,0,1-.309.32l-1.894.02Zm191.228-.046h0l-1.891-.029a.318.318,0,0,1-.312-.32A.3.3,0,0,1,657.8,562l1.891.029a.318.318,0,0,1,0,.632Zm-184.913-.023a.315.315,0,1,1,0-.63l1.894-.02a.309.309,0,0,1,.321.312.318.318,0,0,1-.315.318l-1.891.02Zm6.312-.066a.315.315,0,0,1,0-.63l1.891-.02a.315.315,0,0,1,.318.286.321.321,0,0,1-.312.32l-1.894.017Zm172.288,0h0l-1.894-.026a.318.318,0,0,1,0-.632h0l1.894.026a.318.318,0,0,1,0,.632Zm-165.967-.057a.318.318,0,0,1,0-.632l1.894-.017a.315.315,0,0,1,0,.63Zm159.671-.026h0l-1.891-.023a.318.318,0,0,1-.312-.32.3.3,0,0,1,.318-.312l1.894.023a.318.318,0,0,1,0,.632Zm-153.356-.031a.318.318,0,0,1,0-.632l1.894-.017h0a.316.316,0,0,1,0,.632l-1.894.017Zm147.043-.043h0l-1.891-.02a.318.318,0,0,1,0-.632l1.894.02a.318.318,0,0,1,0,.632Zm-140.731,0a.318.318,0,0,1,0-.632h1.894a.315.315,0,1,1,0,.63l-1.891.017Zm6.312-.049a.318.318,0,0,1,0-.632h1.894a.318.318,0,1,1,0,.632l-1.891.014Zm128.109,0h0l-1.891-.017a.318.318,0,0,1,0-.632h0l1.891.02a.315.315,0,0,1,0,.63Zm-121.8-.074a.318.318,0,0,1,0-.632h1.894a.309.309,0,0,1,.318.312.318.318,0,0,1-.315.318h-1.894Zm115.487-.017h0l-1.891-.014a.315.315,0,0,1,0-.63h1.894a.315.315,0,0,1,0,.63Zm-109.192-.026a.315.315,0,1,1,0-.63l1.894-.014h0a.318.318,0,0,1,0,.632H518.95Zm102.865-.023h-1.891a.318.318,0,0,1-.315-.318.306.306,0,0,1,.318-.315l1.894.014a.315.315,0,1,1,0,.63Zm-96.555,0a.318.318,0,0,1,0-.632h1.891a.315.315,0,0,1,0,.63h-1.894Zm90.246-.026h-1.894a.318.318,0,0,1-.312-.318.323.323,0,0,1,.318-.315h1.891a.318.318,0,0,1,0,.632Zm-83.933,0a.315.315,0,1,1,0-.63h1.891a.318.318,0,0,1,0,.632h-1.891Zm77.621-.029H607.3a.315.315,0,1,1,0-.63h1.894a.315.315,0,1,1,0,.63Zm-71.308,0a.318.318,0,0,1,0-.632h1.894a.315.315,0,0,1,0,.63h-1.894Zm6.313-.026a.315.315,0,1,1,0-.63h1.894a.318.318,0,1,1,0,.632H544.2Zm58.686,0h-1.894a.316.316,0,0,1,0-.632h1.894a.3.3,0,1,1,.009.609Zm-52.365-.02a.318.318,0,1,1,0-.632h1.894a.315.315,0,0,1,0,.63h-1.894Zm46.07,0h-1.894a.318.318,0,0,1,0-.632h1.891a.3.3,0,1,1,0,.607Zm-39.755,0a.315.315,0,1,1,0-.63h1.894a.318.318,0,0,1,0,.632Zm33.445,0h-1.894a.318.318,0,0,1,0-.632h1.894a.315.315,0,1,1,0,.63Zm-27.133,0a.315.315,0,0,1,0-.63h1.894a.315.315,0,0,1,0,.63Zm20.82,0h-1.891a.318.318,0,0,1,0-.632h1.894a.315.315,0,1,1,0,.63Zm-14.508,0a.315.315,0,0,1,0-.63h1.889a.318.318,0,0,1,0,.632Zm8.2,0h-1.891a.315.315,0,0,1,0-.63h1.891a.318.318,0,0,1,0,.632Z" transform="translate(-323.51 -400.824)"/><path class="j" d="M951.35,917.357H909.984a10.685,10.685,0,0,1-10.628-9.386l-4.779-39.8a10.673,10.673,0,0,1,10.628-11.918H954.9a10.673,10.673,0,0,1,10.662,11.6l-3.548,39.8A10.685,10.685,0,0,1,951.35,917.357Z" transform="translate(-638.543 -611.235)"/><path class="m" d="M976.244,977.735s-3.889-10.236-8.43-9.3-9.512,4.427-9.512,4.427l-7.3,9.869s20.483,8.069,27.688,3.434a157.665,157.665,0,0,0,47.346-.721,103.2,103.2,0,0,1-7.44-22.434C1005.214,970.6,990.8,976.256,976.244,977.735Z" transform="translate(-678.872 -687.445)"/><path class="n" d="M1255.711,755s-29.957,37.732-68.481,59.539a103.506,103.506,0,0,0,7.44,22.434c19.985-3.279,43.114-11.105,62.721-28.495Z" transform="translate(-847.505 -538.957)"/><path class="o" d="M641.91,772.42l1.86,49.956a137.372,137.372,0,0,0,15.1,4.292c3-9.643,9.592-21.481,14.994-30.28C654.017,789.36,641.91,772.42,641.91,772.42Z" transform="translate(-458.228 -551.393)"/><path class="p" d="M783.3,769.45c-27.227,29.39-49.261,31.122-67.122,24.806-5.4,8.8-12,20.637-14.994,30.28,72.7,16.024,89.814-50.8,89.814-50.8Z" transform="translate(-500.538 -549.273)"/><path class="q" d="M1007.44,749.938s3.148-3.368,8.939-2.309,10.971,3.076,14.594,0,4.887,1.053,4.887,1.053l-10.831,8.23Z" transform="translate(-719.161 -532.882)"/><path class="r" d="M984.81,759.032s2.149-8.985,8.625-7.752,21.175,9.223,24.964,7.752,8.63-5,11.117-3.751l-4.378,5.437s11.254-6.493,13.192-2.5L1019.6,768.752S992.207,766.014,984.81,759.032Z" transform="translate(-703.007 -536.219)"/><path class="s" d="M311.506,892.251S302.218,773.4,369.929,732.162c0,0,18.932-12.5,42.522,11.706s15.993,49.346-3.806,72.914-39.958,53.1-35.159,76.665c-5.62,2.713-16.511,5.869-30.853,5.9a71.449,71.449,0,0,1-31.127-7.094Z" transform="translate(-222.061 -520.351)"/><path class="t" d="M579.706,614c-.017,1.582-22.566,33.608-22.566,33.608s4.049,7.972,23.37,14.442l16.68-34.289Z" transform="translate(-397.715 -438.304)"/><path class="u" d="M605,930.905s42.779,35.829,88.972,20.2a11,11,0,0,1,8.673.652l13.28,7.014a11.855,11.855,0,0,0,15.712-4.4,24.764,24.764,0,0,0,3.734-9.989l-25.988-10.519,1.917-3.188s-12.688-1.073-16.01,8.012c0,0-24.165,10.052-64.922-34.776C630.379,903.916,611.885,919.642,605,930.905Z" transform="translate(-431.879 -645.257)"/><path class="v" d="M529.034,914.018a.953.953,0,0,1-.529-.163c-18.07-12.207-26.569-31.909-26.655-32.106a.947.947,0,0,1,1.743-.738c.08.192,8.376,19.392,25.962,31.276a.947.947,0,0,1-.529,1.731Z" transform="translate(-358.203 -628.524)"/><path class="w" d="M572.825,799.906a.941.941,0,0,1-.784-.446c-.054-.083-5.56-8.656-16.047-27.43-3.193-5.723-7.383-9.337-12.456-10.756-8.41-2.355-16.525,2.16-16.6,2.206a.947.947,0,0,1-.936-1.645c.361-.2,8.132-4.865,17.315-2.318a23.844,23.844,0,0,1,14.339,11.589c10.45,18.714,15.93,27.247,15.984,27.33a.944.944,0,0,1-.286,1.308.93.93,0,0,1-.532.163Z" transform="translate(-375.17 -541.64)"/><path class="x" d="M617.774,549.85s8.012,18.431,8.562,28.1,2.621,15.95-8.562,17.9-20.62-3.608-25.713-13.26c0,0-8.012-14.848-6.2-20.929S617.774,549.85,617.774,549.85Z" transform="translate(-418.024 -392.511)"/><path class="y" d="M559.97,525.454l.635-.286a1.534,1.534,0,0,0,.75-2.109c-1.577-3.047-4.65-10.032-.678-11.661,5.119-2.1,25.4-6.235,29.76-13.429,4.2-6.916.478-15.841-5.119-18.379a.77.77,0,0,0-1.01.326l-.461.881a.761.761,0,0,1-1.4-.143h0a.755.755,0,0,0-1.368-.2c-1.345,2.152-4.976,5.643-14.685,7.44-13.8,2.547-22.921,8.132-23.149,17.667a.761.761,0,0,1-1.176.627c-1.019-.621-2.65-.913-4.827.919-3.789,3.188-2.238,11.446,6.069,18.253a.755.755,0,0,1-.037,1.216c-1.505.982-3.751,3.314,2.066,6.424,6.009,3.216,10.51,2.953,12.241,2.667a.758.758,0,0,0,.612-.916l-1.846-8.378a.761.761,0,0,1,.741-.924Z" transform="translate(-382.11 -342.301)"/><path class="z" d="M597.629,623.648s-3.062-11.772-8.338-8.473,2.738,13.192,6.982,13.632Z" transform="translate(-419.424 -438.727)"/><path class="aa" d="M946.27,1049.783s10.874,10.633,12.968,9.085a37.928,37.928,0,0,0,4.458-4.779,4.667,4.667,0,0,0,.318-5.5l-2.575-3.957a7.411,7.411,0,0,0-11.063-1.611A13.482,13.482,0,0,0,946.27,1049.783Z" transform="translate(-675.495 -743.286)"/><path class="ab" d="M1451.716,899.72s-1.333-39.566-29.11-88.9a79.06,79.06,0,0,1-9.071-50.894l3.045-19.659s38.121-12.9,80.379-.541c0,0,58.592,36.3,19.432,159.992a77.26,77.26,0,0,1-64.67,0Z" transform="translate(-1008.373 -524.232)"/><path class="ac" d="M1449.23,651.615l9.884,23.75a4.73,4.73,0,0,0,3.574,2.841c5.7.979,19.484,2.507,28.538-3.434a2.289,2.289,0,0,0,.615-3.233l-18.262-26.22Z" transform="translate(-1034.534 -460.662)"/><path class="c" d="M1530.336,987.41a2.195,2.195,0,0,0-1.388,3.148l28.6,54.838a2.2,2.2,0,0,0,2.555,1.093l93.545-27.01a2.192,2.192,0,0,0,1.5-2.716l-16.113-55.8a2.2,2.2,0,0,0-2.667-1.514Z" transform="translate(-1091.259 -684.853)"/><path class="c" d="M1551.1,973.311a2.289,2.289,0,0,0-1.625,3.03l22.892,62.183a2.289,2.289,0,0,0,2.793,1.414l93.265-26.927a2.289,2.289,0,0,0,1.608-2.693l-12.92-59.848a2.289,2.289,0,0,0-2.778-1.751Z" transform="translate(-1105.993 -677.198)"/><path class="ad" d="M1577.884,977.417a2.839,2.839,0,0,0-2.338,3.448l15.546,67.128a2.839,2.839,0,0,0,3.554,2.089l91.854-26.52a2.838,2.838,0,0,0,1.963-3.434l-14.119-54.8a2.841,2.841,0,0,0-3.176-2.1Z" transform="translate(-1124.652 -687.579)"/><path class="ae" d="M1696.4,864.709c7.128-53.85-34.372-95.259-34.372-95.259l-24.689,28.772c18.746,23.367,27.656,44.779,31.725,61.6C1674.465,858.256,1687.462,855.773,1696.4,864.709Z" transform="translate(-1168.816 -549.272)"/><path class="af" d="M1667.527,930.74a.632.632,0,0,1-.612-.484c-5.05-20.857-15.684-41.492-31.605-61.345a.632.632,0,0,1,.984-.793c16.024,20,26.755,40.8,31.848,61.843a.632.632,0,0,1-.466.761A.664.664,0,0,1,1667.527,930.74Z" transform="translate(-1167.277 -619.553)"/><path class="ag" d="M1685.355,1081.419c3.783,15.63,3.385,27.29,2.81,32.859a4.338,4.338,0,0,1-4.006,3.886c-2.389.166-5.646.386-8.553.555-3.2.183-6.745-1.837-9.12-3.525a1.431,1.431,0,0,0-2.1,1.8c1.771,3.465,6.264,6.55,9.363,8.364a1.479,1.479,0,0,1-.34,2.7l-13.249,3.754c21.77,20.508,36.141-2.438,36.141-2.438,9.609-14.848,14.576-29.367,16.394-43.08C1703.752,1077.362,1690.755,1079.845,1685.355,1081.419Z" transform="translate(-1185.106 -770.861)"/><path class="ah" d="M1441.291,537.12c-.415.389-17.521,33.983-17.521,33.983l19.389,9.36,20.929-29.419S1448.227,530.576,1441.291,537.12Z" transform="translate(-1016.359 -382.502)"/><path class="ai" d="M1441.811,519.892l-9.669,16.119a3.018,3.018,0,0,1-.529.661c-1.145,1.07-5.091,4.186-8.135-.057-2.6-3.614-5.031-6.9-7.637-8.258a3.088,3.088,0,0,0-4.172,1.374,114.625,114.625,0,0,0-6.619,15.7,3.079,3.079,0,0,0,1.791,3.774c3.926,1.591,11.684,4.467,18.571,5.417a3.087,3.087,0,0,0,2.922-1.242c2.965-4.058,11.312-15.4,14.162-18.239,2.647-2.635,7.534-1.642,9.729-1.01a3.11,3.11,0,0,0,2.472-.323c2.232-1.345,6.132-4.7,2.575-10.367a3.1,3.1,0,0,1,.959-4.206c2.492-1.64,5.2-4.719,2.621-9.706-2.61-5.048-7.271-5.5-10.444-5.113a3.213,3.213,0,0,1-3.371-1.874,2.049,2.049,0,0,0-1.594-1.256,3,3,0,0,1-2.429-3.525c.572-2.862.137-6.581-4.424-9.074-8.367-4.6-15.692,2.893-17.555,9.22s7.489,10.8,13.372,11.543c4.321.549,6.69,5.265,7.646,7.726A3.093,3.093,0,0,1,1441.811,519.892Z" transform="translate(-1002.895 -347.831)"/><path class="aj" d="M1523.57,649.089s3.72-10.874,8.482-10.484,8.51,5.151,2.607,10.476C1527.318,655.713,1523.57,649.089,1523.57,649.089Z" transform="translate(-1087.601 -455.861)"/><path class="ak" d="M1576.092,283.062H1472.286a4.006,4.006,0,0,1-4.006-4.006h0a4.006,4.006,0,0,1,4.006-4.006h103.806a4.006,4.006,0,0,1,4.006,4.006h0A4.006,4.006,0,0,1,1576.092,283.062Z" transform="translate(-1048.133 -196.345)"/><path class="al" d="M1619.682,338.012H1515.876a4.006,4.006,0,0,1-4.006-4.006h0a4.006,4.006,0,0,1,4.006-4.006h103.806a4.006,4.006,0,0,1,4.006,4.006h0A4.006,4.006,0,0,1,1619.682,338.012Z" transform="translate(-1079.249 -235.571)"/><path class="al" d="M1590.163,448.012h-74.287a4.006,4.006,0,0,1-4.006-4.006h0a4.006,4.006,0,0,1,4.006-4.006h74.287a4.006,4.006,0,0,1,4.006,4.006h0A4.006,4.006,0,0,1,1590.163,448.012Z" transform="translate(-1079.249 -314.094)"/><path class="ak" d="M1660.365,393.012H1556.556a4.006,4.006,0,0,1-4.006-4.006h0a4.006,4.006,0,0,1,4.006-4.006h103.809a4.006,4.006,0,0,1,4.006,4.006h0a4.006,4.006,0,0,1-4.006,4.006Z" transform="translate(-1108.289 -274.833)"/><path class="ak" d="M171.745,1026.782H67.936a4.006,4.006,0,0,1-4.006-4.006h0a4.006,4.006,0,0,1,4.006-4.006H171.745a4.006,4.006,0,0,1,4.006,4.006h0A4.006,4.006,0,0,1,171.745,1026.782Z" transform="translate(-45.636 -727.25)"/><path class="al" d="M215.335,1081.762H111.526a4.006,4.006,0,0,1-4.006-4.006h0a4.006,4.006,0,0,1,4.006-4.006H215.335a4.006,4.006,0,0,1,4.006,4.006h0A4.006,4.006,0,0,1,215.335,1081.762Z" transform="translate(-76.753 -766.497)"/><path class="al" d="M185.816,1191.742h-74.29a4.006,4.006,0,0,1-4.006-4.006h0a4.006,4.006,0,0,1,4.006-4.006h74.29a4.006,4.006,0,0,1,4.006,4.006h0A4.006,4.006,0,0,1,185.816,1191.742Z" transform="translate(-76.753 -845.007)"/><path class="ak" d="M256.028,1136.752H152.216a4.006,4.006,0,0,1-4.006-4.006h0a4.006,4.006,0,0,1,4.006-4.006H256.028a4.006,4.006,0,0,1,4.006,4.006h0A4.006,4.006,0,0,1,256.028,1136.752Z" transform="translate(-105.8 -805.752)"/><g class="am" transform="translate(258.035)"><path class="k" d="M923.827,285.985a.913.913,0,0,1-.807-.478c-.395-.721-.781-1.465-1.145-2.212a.919.919,0,1,1,1.651-.81c.352.721.727,1.431,1.11,2.14a.918.918,0,0,1-.81,1.359Z" transform="translate(-916.049 -201.285)"/><path class="k" d="M905.475,75.355a.919.919,0,0,1-.858-.632c-.5-1.525-.944-3.1-1.313-4.667a.919.919,0,0,1,1.788-.424c.361,1.519.787,3.039,1.273,4.518a.918.918,0,0,1-.589,1.159.908.908,0,0,1-.3.046ZM902.92,63.119a.921.921,0,0,1-.913-.833c-.154-1.605-.24-3.233-.258-4.842a.916.916,0,0,1,.91-.927h0a.919.919,0,0,1,.921.907c.014,1.557.1,3.133.249,4.687a.916.916,0,0,1-.83,1Zm.206-12.5a.81.81,0,0,1-.117,0,.916.916,0,0,1-.8-1.03c.206-1.594.484-3.2.827-4.776a.919.919,0,1,1,1.8.389c-.332,1.525-.6,3.079-.8,4.624a.918.918,0,0,1-.91.793Zm2.987-12.138a.959.959,0,0,1-.321-.057.921.921,0,0,1-.544-1.182c.558-1.511,1.188-3.016,1.871-4.473a.92.92,0,1,1,1.665.781c-.664,1.411-1.27,2.862-1.811,4.329a.924.924,0,0,1-.861.6Zm5.608-11.16a.921.921,0,0,1-.773-1.431c.878-1.351,1.826-2.678,2.816-3.949a.924.924,0,0,1,1.451,1.145c-.959,1.23-1.874,2.515-2.724,3.82a.91.91,0,0,1-.77.4Zm7.935-9.655a.919.919,0,0,1-.641-1.577c1.145-1.125,2.369-2.209,3.614-3.231a.923.923,0,0,1,1.167,1.431c-1.2.987-2.384,2.04-3.5,3.125a.91.91,0,0,1-.641.24Zm9.872-7.654a.921.921,0,0,1-.481-1.717c1.376-.838,2.8-1.628,4.244-2.344A.919.919,0,0,1,934.11,7.6c-1.394.692-2.773,1.456-4.1,2.269a.936.936,0,0,1-.478.146Zm11.332-5.268a.919.919,0,0,1-.286-1.791c1.525-.509,3.09-.959,4.659-1.339a.92.92,0,1,1,.432,1.788c-1.517.366-3.033.8-4.51,1.3a.924.924,0,0,1-.295.034Zm29.422-1.694a.89.89,0,0,1-.192-.02c-1.522-.323-3.079-.572-4.624-.775A.92.92,0,0,1,965.69.432c1.6.2,3.208.466,4.784.8a.921.921,0,0,1-.192,1.82Zm-17.206-.936a.919.919,0,0,1-.092-1.831c1.608-.163,3.236-.258,4.842-.286a.921.921,0,0,1,.029,1.84c-1.554.023-3.13.114-4.684.286a.523.523,0,0,1-.094-.009Z" transform="translate(-901.75)"/><path class="k" d="M1167.186,14.366a.887.887,0,0,1-.349-.072c-.741-.306-1.5-.6-2.249-.873a.919.919,0,1,1,.63-1.717c.775.286,1.557.572,2.321.9a.921.921,0,0,1-.352,1.771Z" transform="translate(-1088.887 -8.291)"/></g><g class="am" transform="translate(290.266 33.381)"><path class="k" d="M1278.356,120.76a.919.919,0,0,1-.858-.587c-.286-.75-.6-1.5-.924-2.226a.92.92,0,0,1,1.683-.744c.332.755.652,1.528.956,2.289a.921.921,0,0,1-.858,1.253Z" transform="translate(-1201.493 -116.655)"/><path class="k" d="M1062.72,220.9c-.69,0-1.376-.014-2.06-.037a.921.921,0,0,1-.887-.953.933.933,0,0,1,.953-.887c1.528.057,3.082.049,4.615-.026a.92.92,0,0,1,.089,1.837C1064.531,220.878,1063.618,220.9,1062.72,220.9Zm-9.609-.836a.979.979,0,0,1-.157,0c-1.559-.286-3.128-.615-4.661-1.022a.919.919,0,0,1,.469-1.777c1.482.392,3,.724,4.507.987a.919.919,0,0,1-.157,1.826Zm19.847-.1a.919.919,0,0,1-.166-1.823c1.511-.286,3.025-.624,4.5-1.024a.919.919,0,1,1,.481,1.774c-1.522.415-3.088.77-4.65,1.059A1.086,1.086,0,0,1,1072.958,219.962Zm11.778-3.534a.919.919,0,0,1-.361-1.766c1.411-.6,2.81-1.268,4.166-1.983a.919.919,0,0,1,.859,1.625c-1.4.741-2.862,1.431-4.307,2.049A.89.89,0,0,1,1084.736,216.428Zm10.711-6.029a.919.919,0,0,1-.538-1.665c1.245-.9,2.467-1.854,3.628-2.861a.919.919,0,0,1,1.2,1.4c-1.2,1.03-2.464,2.02-3.751,2.944a.912.912,0,0,1-.535.186Zm9.131-8.23a.919.919,0,0,1-.687-1.531c1.021-1.145,2-2.346,2.924-3.571a.92.92,0,0,1,1.471,1.1c-.95,1.265-1.966,2.507-3.022,3.688A.907.907,0,0,1,1104.578,202.169Zm7.128-10.015a.907.907,0,0,1-.446-.117.919.919,0,0,1-.355-1.25c.747-1.339,1.448-2.727,2.08-4.121a.919.919,0,0,1,1.674.758c-.652,1.431-1.376,2.861-2.149,4.258a.916.916,0,0,1-.8.466Zm4.781-11.332a.95.95,0,0,1-.263-.04.916.916,0,0,1-.618-1.145c.438-1.471.816-2.979,1.127-4.478a.919.919,0,1,1,1.8.375c-.32,1.551-.713,3.108-1.165,4.627a.922.922,0,0,1-.881.655Zm2.178-12.11h-.063a.918.918,0,0,1-.858-.979c.083-1.216.123-2.455.123-3.677v-.936a.919.919,0,0,1,1.837-.031c0,.323,0,.647,0,.967,0,1.265-.043,2.544-.126,3.8a.921.921,0,0,1-.913.85Zm-.529-12.287a.916.916,0,0,1-.907-.778c-.232-1.519-.529-3.042-.887-4.533a.919.919,0,1,1,1.788-.426c.369,1.537.675,3.113.916,4.679a.919.919,0,0,1-.77,1.05,1.144,1.144,0,0,1-.14,0Z" transform="translate(-1038.102 -140.445)"/><path class="k" d="M1017.559,375.735a.913.913,0,0,1-.355-.072c-.764-.318-1.531-.658-2.289-1.01a.919.919,0,1,1,.784-1.663c.721.338,1.462.667,2.2.976a.921.921,0,0,1-.355,1.768Z" transform="translate(-1014.387 -299.577)"/></g><path class="an" d="M969.311,125.94a.672.672,0,0,0,.778.04l6.9-4.4a35.622,35.622,0,0,0,11.1,3.179l3.525,7.374a.678.678,0,0,0,.684.378l9.746-1.116a.675.675,0,0,0,.572-.524l1.768-7.981a35.583,35.583,0,0,0,10.09-5.606l7.726,2.721a.67.67,0,0,0,.75-.215l6.1-7.683a.673.673,0,0,0,.04-.778l-4.4-6.9a35.625,35.625,0,0,0,3.179-11.088l7.374-3.525a.678.678,0,0,0,.378-.684l-1.116-9.749a.676.676,0,0,0-.524-.572L1026,77.037a35.654,35.654,0,0,0-5.606-10.09l2.721-7.726a.675.675,0,0,0-.215-.75l-7.683-6.1a.672.672,0,0,0-.778-.04l-6.9,4.392a35.644,35.644,0,0,0-11.1-3.179l-3.528-7.374a.672.672,0,0,0-.681-.378l-9.749,1.116a.672.672,0,0,0-.572.524l-1.768,7.981a35.638,35.638,0,0,0-10.093,5.606l-7.726-2.721a.675.675,0,0,0-.75.215l-6.1,7.683a.672.672,0,0,0-.04.778l4.4,6.919a35.644,35.644,0,0,0-3.188,11.088l-7.374,3.528a.672.672,0,0,0-.378.681l1.116,9.749a.673.673,0,0,0,.524.572l7.981,1.768a35.635,35.635,0,0,0,5.614,10.1l-2.721,7.726a.67.67,0,0,0,.215.75Z" transform="translate(-677.369 -32.684)"/><path class="ao" d="M1074.112,181.554a10.559,10.559,0,1,1,3.72-.684h0A10.47,10.47,0,0,1,1074.112,181.554Zm3.068-2.4Zm-3.076-15.026a6.89,6.89,0,1,0,2.824.612A6.891,6.891,0,0,0,1074.1,164.125Z" transform="translate(-759.204 -114.527)"/><path class="ao" d="M1040.236,160.464h0q-.927,0-1.851-.072c-.175,0-.349-.029-.526-.046a.615.615,0,0,1-.552-.609v-.06a.618.618,0,0,1,.672-.549,23.1,23.1,0,0,0,25.313-21.667c.023-.421.034-.841.034-1.268a23.061,23.061,0,1,0-41.38,14,.613.613,0,1,1-.973.747,24.288,24.288,0,1,1,43.42-17.529,24.812,24.812,0,0,1,.16,2.787,24.323,24.323,0,0,1-21.527,24.108h0A24.66,24.66,0,0,1,1040.236,160.464Z" transform="translate(-725.254 -79.873)"/><g class="am" transform="translate(202.073 52.313)"><path class="k" d="M718.443,343.28a.618.618,0,0,1-.541-.32q-.372-.684-.715-1.388a.614.614,0,0,1,1.1-.535q.326.678.687,1.336a.61.61,0,0,1-.243.83.6.6,0,0,1-.292.077Z" transform="translate(-713.993 -295.515)"/><path class="k" d="M708.758,226.484a.612.612,0,0,1-.572-.4c-.352-.944-.661-1.917-.921-2.89a.613.613,0,1,1,1.185-.315c.249.933.549,1.869.884,2.776a.609.609,0,0,1-.572.827Zm-1.537-5.737a.612.612,0,0,1-.6-.512q-.06-.343-.112-.7c-.112-.767-.2-1.545-.255-2.312a.613.613,0,1,1,1.222-.092c.054.738.137,1.488.246,2.226.034.223.069.446.106.67a.612.612,0,0,1-.5.707.626.626,0,0,1-.1.009Zm-.441-5.923h0a.618.618,0,0,1-.6-.627c.02-1.007.089-2.023.206-3.025a.612.612,0,1,1,1.216.143c-.112.959-.177,1.937-.2,2.907a.61.61,0,0,1-.624.6Zm.684-5.9a.657.657,0,0,1-.129-.014.615.615,0,0,1-.472-.727c.212-.987.472-1.972.776-2.933a.612.612,0,1,1,1.168.369c-.286.924-.541,1.871-.744,2.819a.612.612,0,0,1-.6.486Zm1.786-5.666a.572.572,0,0,1-.237-.049.615.615,0,0,1-.326-.8c.392-.924.833-1.843,1.313-2.73a.612.612,0,0,1,1.079.572c-.461.858-.887,1.737-1.262,2.63a.615.615,0,0,1-.567.381Zm2.821-5.222a.6.6,0,0,1-.341-.1.612.612,0,0,1-.169-.858c.572-.838,1.165-1.657,1.8-2.438a.613.613,0,0,1,.95.775c-.609.75-1.19,1.537-1.731,2.344A.609.609,0,0,1,712.072,198.035Zm3.749-4.607a.612.612,0,0,1-.438-1.042c.707-.718,1.457-1.411,2.226-2.057a.612.612,0,1,1,.79.936c-.741.624-1.462,1.29-2.141,1.98a.607.607,0,0,1-.438.177Zm4.544-3.82a.612.612,0,0,1-.346-1.119c.827-.572,1.691-1.11,2.575-1.6a.613.613,0,1,1,.6,1.07,27.967,27.967,0,0,0-2.472,1.542.627.627,0,0,1-.355.1Zm5.185-2.9a.615.615,0,0,1-.246-1.176c.919-.4,1.871-.77,2.83-1.085a.613.613,0,0,1,.383,1.165c-.921.3-1.837.652-2.721,1.042a.572.572,0,0,1-.246.049ZM745.923,185a.552.552,0,0,1-.152-.02,28.438,28.438,0,0,0-2.861-.572.613.613,0,1,1,.189-1.21c.993.152,2,.355,2.97.6A.612.612,0,0,1,745.92,185Zm-14.737-.155a.612.612,0,0,1-.134-1.21c.824-.189,1.668-.346,2.51-.469l.472-.066a.613.613,0,1,1,.16,1.216l-.455.063c-.807.12-1.62.286-2.415.452A.572.572,0,0,1,731.186,184.841Zm8.871-.747h-.037c-.959-.057-1.937-.066-2.913-.029a.613.613,0,0,1-.046-1.225c1.013-.04,2.032-.029,3.03.029a.613.613,0,1,1-.034,1.225Z" transform="translate(-706.18 -182.817)"/><path class="k" d="M854.864,190.941a.621.621,0,0,1-.235-.046q-.69-.286-1.4-.541a.612.612,0,1,1,.412-1.145c.492.175.976.363,1.457.572a.612.612,0,0,1-.235,1.179Z" transform="translate(-810.814 -187.335)"/></g><g class="am" transform="translate(220.16 71.054)"><path class="k" d="M917.764,250.955a.61.61,0,0,1-.572-.392q-.269-.7-.572-1.391a.613.613,0,0,1,1.122-.5c.209.475.406.959.6,1.431a.612.612,0,0,1-.355.793A.572.572,0,0,1,917.764,250.955Z" transform="translate(-874.451 -248.312)"/><path class="k" d="M794.369,304.79c-.9,0-1.8-.037-2.681-.112a.613.613,0,1,1,.1-1.222c1.027.086,2.077.12,3.116.1a.612.612,0,0,1,.023,1.225Zm3.72-.22a.612.612,0,0,1-.072-1.222c.286-.034.572-.072.873-.114.738-.109,1.479-.246,2.2-.406a.615.615,0,0,1,.266,1.2c-.75.166-1.519.306-2.289.418-.3.046-.6.086-.907.123Zm-9.492-.323a.535.535,0,0,1-.114,0,31.543,31.543,0,0,1-3.148-.761.613.613,0,0,1,.349-1.176,30.542,30.542,0,0,0,3.03.733.612.612,0,0,1-.114,1.216Zm15.7-1.053a.615.615,0,0,1-.192-1.2c.984-.326,1.963-.7,2.907-1.125a.612.612,0,1,1,.5,1.119,32.163,32.163,0,0,1-3.022,1.17.639.639,0,0,1-.192.037Zm5.809-2.587a.612.612,0,0,1-.306-1.145,31.121,31.121,0,0,0,2.618-1.688.613.613,0,0,1,.715,1,30.47,30.47,0,0,1-2.721,1.757A.627.627,0,0,1,810.107,300.607Zm5.151-3.706a.615.615,0,0,1-.406-1.073c.775-.687,1.522-1.431,2.226-2.18a.613.613,0,1,1,.9.83,31.506,31.506,0,0,1-2.315,2.269A.607.607,0,0,1,815.257,296.9Zm4.292-4.673a.612.612,0,0,1-.489-.981c.621-.83,1.208-1.7,1.743-2.575a.614.614,0,1,1,1.05.635c-.558.919-1.168,1.823-1.814,2.684A.612.612,0,0,1,819.55,292.228Zm3.285-5.437a.61.61,0,0,1-.555-.876,30.322,30.322,0,0,0,1.193-2.879.612.612,0,0,1,1.145.409c-.361,1.013-.778,2.02-1.239,3a.615.615,0,0,1-.541.349Zm2.129-5.983a.635.635,0,0,1-.146-.017.612.612,0,0,1-.449-.741,31.041,31.041,0,0,0,.572-3.062.613.613,0,0,1,1.213.169,31.739,31.739,0,0,1-.6,3.191.61.61,0,0,1-.592.466Zm.876-6.3h-.023a.609.609,0,0,1-.589-.635c0-.369.02-.744.02-1.116,0-.664-.023-1.336-.066-2a.614.614,0,0,1,1.225-.08c.046.692.066,1.391.066,2.08,0,.386,0,.775-.02,1.162a.612.612,0,0,1-.607.6Zm-.406-6.321a.612.612,0,0,1-.6-.515c-.172-1.022-.395-2.049-.664-3.045a.612.612,0,1,1,1.182-.321,32.122,32.122,0,0,1,.69,3.165.612.612,0,0,1-.5.707Z" transform="translate(-780.458 -259.411)"/><path class="k" d="M771.4,394.08a.627.627,0,0,1-.235-.049q-.721-.3-1.431-.627a.613.613,0,1,1,.521-1.11c.452.212.91.415,1.374.6a.615.615,0,0,1-.232,1.182Z" transform="translate(-769.387 -351.053)"/></g><path class="ap" d="M744.412,253.907a.378.378,0,0,0,.438.023l3.872-2.469a20.01,20.01,0,0,0,6.232,1.786l1.98,4.141a.378.378,0,0,0,.383.212l5.474-.627a.378.378,0,0,0,.326-.286l.993-4.484a19.968,19.968,0,0,0,5.666-3.148l4.332,1.528a.375.375,0,0,0,.421-.12l3.434-4.315a.375.375,0,0,0,.023-.435l-2.475-3.874A20.01,20.01,0,0,0,777.3,235.6l4.141-1.98a.372.372,0,0,0,.212-.383l-.627-5.474a.375.375,0,0,0-.286-.326l-4.481-.993a20.012,20.012,0,0,0-3.148-5.666l1.531-4.332a.38.38,0,0,0-.123-.421L770.2,212.6a.378.378,0,0,0-.438-.023l-3.892,2.469a20.089,20.089,0,0,0-6.232-1.786l-1.98-4.141a.378.378,0,0,0-.383-.212l-5.474.627a.38.38,0,0,0-.326.286l-.993,4.481a20,20,0,0,0-5.666,3.148l-4.332-1.528a.375.375,0,0,0-.421.12l-3.434,4.315a.375.375,0,0,0-.023.438l2.484,3.877a20.088,20.088,0,0,0-1.786,6.232l-4.141,1.98a.383.383,0,0,0-.212.383l.627,5.474a.381.381,0,0,0,.286.326l4.481.993a20,20,0,0,0,3.148,5.666l-1.528,4.332a.375.375,0,0,0,.12.421Z" transform="translate(-523.219 -149.124)"/><path class="ao" d="M804.3,285.755a5.508,5.508,0,1,1,1.94-.358h0A5.437,5.437,0,0,1,804.3,285.755Zm1.717-.93Zm-1.717-8.871a4.292,4.292,0,1,0,1.511,8.3h0a4.292,4.292,0,0,0-1.511-8.3Z" transform="translate(-570.206 -196.122)"/><path class="ao" d="M783.555,272.872h-.5c-.255,0-.509-.026-.764-.049h-.094a.612.612,0,0,1-.552-.609.42.42,0,0,1,0-.06.612.612,0,0,1,.67-.552,12.541,12.541,0,0,0,2.7-.023h0a12.694,12.694,0,0,0,11.211-13.426,4.967,4.967,0,0,0-.057-.615,12.682,12.682,0,0,0-25.281,1.431,12.481,12.481,0,0,0,.086,1.454,12.651,12.651,0,0,0,2.524,6.264.613.613,0,0,1-.973.747,13.9,13.9,0,0,1-2.77-6.868,13.671,13.671,0,0,1-.092-1.6,13.907,13.907,0,0,1,27.725-1.571,13.672,13.672,0,0,1,.092,1.6,13.924,13.924,0,0,1-12.324,13.8h-.046A14.107,14.107,0,0,1,783.555,272.872Z" transform="translate(-549.422 -174.935)"/><path class="k" d="M400.124,789.473l-1.551.6h-.017a.513.513,0,1,1-.372-.956h0l1.585-.615a.512.512,0,1,1,.372.953Z" transform="translate(-284.011 -562.843)"/><path class="k" d="M378.961,799.162l-1.448.818H377.5a.521.521,0,1,1-.512-.9h0l1.482-.833a.519.519,0,0,1,.509.9Z" transform="translate(-268.899 -569.779)"/><path class="k" d="M359.545,811.767l-1.328,1H358.2a.527.527,0,0,1-.635-.841h0l1.356-1.022a.527.527,0,0,1,.621.838Z" transform="translate(-255.1 -578.821)"/><path class="k" d="M341.86,826.663l-1.2,1.145h0a.535.535,0,0,1-.755,0,.529.529,0,0,1,0-.753h0l1.222-1.179a.533.533,0,0,1,.741.767Z" transform="translate(-242.531 -589.445)"/><path class="k" d="M326.1,843.626l-1.056,1.288h0a.541.541,0,0,1-.761.077.547.547,0,0,1-.074-.764h0l1.079-1.308a.539.539,0,1,1,.833.684Z" transform="translate(-231.347 -601.578)"/><path class="k" d="M312.287,862.228l-.916,1.394h0a.548.548,0,1,1-.916-.6h0l.936-1.414a.547.547,0,1,1,.91.6Z" transform="translate(-221.555 -614.861)"/><path class="k" d="M300.439,882.343l-.773,1.479h0a.555.555,0,1,1-.984-.512h0l.787-1.5a.554.554,0,0,1,.981.512Z" transform="translate(-213.163 -629.267)"/><path class="k" d="M290.809,903.735l-.624,1.545h0a.572.572,0,0,1-1.044-.421h0l.638-1.571a.572.572,0,0,1,1.039.418Z" transform="translate(-206.395 -644.633)"/><path class="k" d="M283.19,925.7l-.472,1.6h0a.572.572,0,0,1-1.093-.321h0l.484-1.625a.572.572,0,0,1,1.087.323Z" transform="translate(-201.031 -660.326)"/><path class="k" d="M277.691,948.225l-.312,1.637h0a.583.583,0,0,1-1.145-.217h0l.323-1.665a.574.574,0,1,1,1.127.218Z" transform="translate(-197.182 -676.383)"/><path class="k" d="M274.545,971.352l-.149,1.66h0a.583.583,0,0,1-1.162-.1h0l.155-1.688a.582.582,0,0,1,1.159.106Z" transform="translate(-195.047 -692.929)"/><path class="k" d="M273.7,994.9l.02,1.665v.017a.59.59,0,1,1-1.179.014h0l-.017-1.7a.589.589,0,0,1,1.176,0Z" transform="translate(-194.538 -709.82)"/><path class="k" d="M274.855,1018.263l.186,1.657v.014a.6.6,0,1,1-1.187.134h0l-.186-1.688a.6.6,0,0,1,1.182-.129Z" transform="translate(-195.357 -726.523)"/><path class="k" d="M278.273,1041.327l.343,1.631h0a.6.6,0,1,1-1.182.249h0l-.346-1.663a.6.6,0,1,1,1.179-.243Z" transform="translate(-197.791 -742.991)"/><path class="k" d="M283.867,1064.157l.492,1.594h0a.612.612,0,1,1-1.167.361h0l-.5-1.622a.61.61,0,0,1,1.165-.355Z" transform="translate(-201.788 -759.345)"/><path class="k" d="M291.487,1086.23l.635,1.542h0a.619.619,0,0,1-1.145.469h0l-.641-1.571a.617.617,0,0,1,1.145-.464Z" transform="translate(-207.225 -775.115)"/><path class="k" d="M301,1107.539l.764,1.479h0a.625.625,0,0,1-1.11.572h0l-.775-1.508a.624.624,0,1,1,1.107-.572Z" transform="translate(-214.008 -790.34)"/><path class="k" d="M312.486,1128.075l.893,1.411h0a.632.632,0,0,1-1.067.675h0l-.9-1.431a.63.63,0,0,1,1.064-.672Z" transform="translate(-222.228 -805.056)"/><path class="k" d="M325.637,1147.453l1.013,1.325h0a.639.639,0,0,1-1.016.775h0l-1.027-1.351a.636.636,0,0,1,1.013-.77Z" transform="translate(-231.628 -818.917)"/><path class="k" d="M340.521,1165.694l1.125,1.233h0a.644.644,0,1,1-.953.859h0l-1.145-1.256a.644.644,0,0,1,.953-.858Z" transform="translate(-242.295 -831.993)"/><path class="k" d="M356.775,1182.381l1.23,1.125h0a.652.652,0,1,1-.881.961h0l-1.25-1.145a.65.65,0,0,1,.878-.959Z" transform="translate(-253.89 -843.909)"/><path class="k" d="M374.525,1197.574l1.331,1h0a.659.659,0,0,1-.8,1.05h0l-1.353-1.027a.658.658,0,1,1,.8-1.047Z" transform="translate(-266.569 -854.767)"/><path class="k" d="M393.795,1210.989l1.431.858h.014a.67.67,0,0,1-.7,1.145h0l-1.448-.89a.67.67,0,1,1,.7-1.145Z" transform="translate(-280.382 -864.373)"/><path class="k" d="M414.317,1222.564l1.5.724h.014a.674.674,0,1,1-.587,1.213h0l-1.528-.741a.672.672,0,0,1,.572-1.21Z" transform="translate(-295.099 -872.689)"/><path class="k" d="M435.6,1231.885l1.562.572h0a.681.681,0,1,1-.469,1.276h0l-1.591-.592a.678.678,0,1,1,.472-1.27Z" transform="translate(-310.262 -879.335)"/><path class="k" d="M457.874,1239.25l1.608.426h.017a.687.687,0,0,1-.355,1.328h0l-1.64-.441a.684.684,0,1,1,.355-1.322Z" transform="translate(-326.228 -884.617)"/><path class="k" d="M480.694,1244.512l1.643.286h.014a.694.694,0,0,1-.232,1.368h0l-1.674-.286a.693.693,0,0,1,.235-1.365Z" transform="translate(-342.555 -888.391)"/><path class="k" d="M503.9,1247.647l1.663.132h.014a.7.7,0,1,1-.112,1.4h0l-1.691-.14a.7.7,0,1,1,.114-1.393Z" transform="translate(-359.164 -890.63)"/><path class="k" d="M527.424,1248.75h1.691a.715.715,0,0,1,0,1.431h-1.7a.707.707,0,0,1,0-1.411Z" transform="translate(-376.025 -891.421)"/><path class="k" d="M550.7,1247.481l1.66-.149h.014a.718.718,0,1,1,.129,1.431h0l-1.691.152a.718.718,0,1,1-.129-1.431Z" transform="translate(-392.635 -890.407)"/><path class="k" d="M573.946,1244.309l1.642-.286h0a.713.713,0,0,1,.246,1.405h0l-1.671.286a.713.713,0,1,1-.246-1.4Z" transform="translate(-409.27 -888.039)"/><path class="k" d="M596.948,1239.251l1.614-.418h0a.714.714,0,0,1,.358,1.382h0l-1.643.426a.715.715,0,0,1-.358-1.385Z" transform="translate(-425.739 -884.325)"/><path class="k" d="M619.424,1232.367l1.577-.547h0a.716.716,0,0,1,.469,1.354h0l-1.6.555a.716.716,0,0,1-.469-1.354Z" transform="translate(-441.813 -879.308)"/><path class="k" d="M641.237,1223.664l1.525-.67h.014a.718.718,0,1,1,.572,1.313h0l-1.554.681a.718.718,0,1,1-.572-1.313Z" transform="translate(-457.395 -872.977)"/><path class="k" d="M662.528,1213.394l1.474-.784h0a.719.719,0,0,1,.675,1.271h0l-1.5.8a.719.719,0,1,1-.672-1.271Z" transform="translate(-472.657 -865.562)"/><path class="k" d="M683.081,1201.584l1.431-.881h0a.721.721,0,1,1,.758,1.225h0l-1.431.893a.721.721,0,0,1-.758-1.225Z" transform="translate(-487.395 -857.032)"/><path class="k" d="M702.607,1188.585l1.365-.967h0a.722.722,0,1,1,.836,1.179h0l-1.382.979a.723.723,0,0,1-.836-1.179Z" transform="translate(-501.326 -847.687)"/><path class="k" d="M721.454,1174.439l1.308-1.039h0a.728.728,0,0,1,.9,1.145h0l-1.325,1.05a.728.728,0,0,1-.9-1.145Z" transform="translate(-514.8 -837.521)"/><path class="k" d="M739.568,1159.333l1.256-1.1h0a.725.725,0,1,1,.956,1.09h0l-1.271,1.113a.725.725,0,0,1-.956-1.09Z" transform="translate(-527.754 -826.676)"/><path class="k" d="M756.891,1143.463l1.21-1.145h0a.728.728,0,0,1,1,1.053h0l-1.225,1.165a.727.727,0,1,1-1-1.05Z" transform="translate(-540.116 -815.301)"/><path class="k" d="M773.815,1126.881l1.17-1.2h0a.727.727,0,0,1,1.042,1.016h0l-1.173,1.208a.73.73,0,0,1-1.042-1.019Z" transform="translate(-552.258 -803.413)"/><path class="k" d="M789.961,1109.8l1.145-1.236h0a.731.731,0,0,1,1.076.99h0l-1.145,1.239a.73.73,0,0,1-1.076-.987Z" transform="translate(-563.777 -791.179)"/><path class="k" d="M805.738,1092.347l1.1-1.262h0a.733.733,0,0,1,1.1.964h0l-1.113,1.268a.733.733,0,0,1-1.1-.967Z" transform="translate(-575.056 -778.708)"/><path class="k" d="M821.058,1074.475l1.084-1.282h0a.733.733,0,1,1,1.119.947h0l-1.087,1.288a.734.734,0,0,1-1.119-.95Z" transform="translate(-585.986 -765.914)"/><path class="k" d="M836.171,1056.4l1.067-1.3a.738.738,0,0,1,1.145.933h0l-1.073,1.3a.734.734,0,0,1-1.13-.936Z" transform="translate(-596.787 -752.991)"/><path class="k" d="M851.014,1038.193l1.056-1.3a.736.736,0,0,1,1.145.924h0l-1.062,1.308a.737.737,0,0,1-1.145-.93Z" transform="translate(-607.375 -739.988)"/><path class="k" d="M865.891,1019.995l1.056-1.311a.738.738,0,0,1,1.145.927h0l-1.053,1.308a.738.738,0,0,1-1.145-.924Z" transform="translate(-618.029 -727.021)"/><path class="k" d="M880.505,1001.519l1.056-1.311a.738.738,0,1,1,1.145.93h0l-1.056,1.308a.738.738,0,1,1-1.145-.927Z" transform="translate(-628.408 -713.784)"/><path class="k" d="M895.285,983.259l1.067-1.3a.741.741,0,1,1,1.145.939h0l-1.064,1.3a.741.741,0,1,1-1.145-.939Z" transform="translate(-638.963 -700.755)"/><path class="k" d="M910.285,965.2l1.082-1.293a.745.745,0,0,1,1.145.953h0l-1.076,1.288a.744.744,0,1,1-1.145-.95Z" transform="translate(-649.68 -687.897)"/><path class="k" d="M925.5,947.292l1.1-1.276a.745.745,0,0,1,1.127.973h0l-1.1,1.271h0a.745.745,0,1,1-1.127-.973Z" transform="translate(-660.538 -675.13)"/><path class="k" d="M941.085,929.586l1.13-1.253a.747.747,0,1,1,1.107,1h0l-1.125,1.248h0a.747.747,0,0,1-1.107-1Z" transform="translate(-671.681 -662.491)"/><path class="k" d="M956.962,912.416l1.165-1.225a.747.747,0,1,1,1.082,1.03h0l-1.145,1.213h0a.747.747,0,0,1-1.085-1.027Z" transform="translate(-682.994 -650.289)"/><path class="k" d="M973.274,895.639l1.2-1.188a.75.75,0,1,1,1.053,1.067h0l-1.193,1.176h0a.75.75,0,1,1-1.053-1.064Z" transform="translate(-694.599 -638.35)"/><path class="k" d="M990.33,879.444l1.248-1.145a.75.75,0,1,1,1.013,1.107h0l-1.236,1.13h0a.75.75,0,1,1-1.013-1.107Z" transform="translate(-706.782 -626.834)"/><path class="k" d="M1007.82,864.078l1.3-1.084a.753.753,0,0,1,.967,1.145h0l-1.282,1.073h0a.753.753,0,1,1-.967-1.145Z" transform="translate(-719.213 -615.953)"/><path class="k" d="M1026.351,849.347l1.351-1.019a.754.754,0,1,1,.91,1.2h0l-1.333,1h0a.755.755,0,0,1-.91-1.2Z" transform="translate(-732.475 -605.471)"/><path class="k" d="M1045.373,835.752l1.408-.941a.756.756,0,1,1,.841,1.256h0l-1.388.93h0a.756.756,0,0,1-.841-1.256Z" transform="translate(-746.015 -595.839)"/><path class="k" d="M1065.234,823.319l1.459-.858a.758.758,0,0,1,.77,1.3h0l-1.431.858h0a.756.756,0,1,1-.77-1.3Z" transform="translate(-760.173 -587.051)"/><path class="k" d="M1085.638,811.926l1.5-.778a.759.759,0,1,1,.7,1.348h0l-1.485.77h0a.758.758,0,1,1-.7-1.345Z" transform="translate(-774.677 -578.977)"/><path class="k" d="M1106.952,801.769l1.542-.692a.761.761,0,0,1,.624,1.388h0l-1.525.684h0a.761.761,0,0,1-.621-1.388Z" transform="translate(-789.915 -571.808)"/><path class="k" d="M1128.524,792.76l1.58-.607a.766.766,0,0,1,.547,1.431h0l-1.562.6h0a.766.766,0,0,1-.547-1.431Z" transform="translate(-805.258 -565.443)"/><path class="k" d="M1150.733,784.978l1.611-.521a.762.762,0,0,1,.469,1.451h0l-1.591.512h0a.762.762,0,0,1-.469-1.451Z" transform="translate(-821.089 -559.959)"/><path class="k" d="M1173.17,778.436l1.637-.432a.764.764,0,0,1,.389,1.477h0l-1.617.426h0a.764.764,0,1,1-.389-1.477Z" transform="translate(-837.056 -555.365)"/><path class="k" d="M1196.217,773.1l1.657-.343a.767.767,0,1,1,.312,1.5h0l-1.637.341h0a.767.767,0,0,1-.312-1.5Z" transform="translate(-853.528 -551.624)"/><path class="k" d="M1219.272,769.006l1.671-.255a.77.77,0,0,1,.232,1.519h0l-1.654.249h0a.767.767,0,0,1-.229-1.517Z" transform="translate(-869.926 -548.771)"/><path class="k" d="M1242.693,766.144l1.685-.163a.77.77,0,1,1,.149,1.531h0l-1.663.163h0a.77.77,0,0,1-.149-1.531Z" transform="translate(-886.64 -546.791)"/><path class="k" d="M1266.083,764.564l1.691-.074a.773.773,0,0,1,.069,1.542h0l-1.671.072h0a.771.771,0,0,1-.069-1.539Z" transform="translate(-903.283 -545.732)"/><path class="k" d="M1289.664,764.19l1.691.017a.773.773,0,0,1,0,1.545h0l-1.671-.017h0a.773.773,0,0,1,.017-1.545Z" transform="translate(-920.096 -545.518)"/><path class="k" d="M1313.041,764.883l1.688.109a.775.775,0,0,1-.1,1.545h0l-1.668-.106h0a.775.775,0,1,1,.1-1.545Z" transform="translate(-936.709 -546.01)"/><path class="k" d="M1336.572,766.854l1.68.2a.776.776,0,0,1-.18,1.542h0l-1.66-.195h0a.775.775,0,1,1,.183-1.539Z" transform="translate(-953.495 -547.417)"/><path class="k" d="M1360.058,770.095l1.665.286a.778.778,0,0,1-.263,1.534h0l-1.645-.286h0a.778.778,0,0,1,.266-1.531Z" transform="translate(-970.276 -549.731)"/><path class="k" d="M1383.018,774.555l1.648.378a.778.778,0,1,1-.346,1.517h0l-1.628-.372h0a.778.778,0,1,1,.349-1.517Z" transform="translate(-986.592 -552.903)"/><path class="k" d="M1405.888,780.3l1.625.469a.781.781,0,0,1-.432,1.5h0l-1.605-.464h0a.779.779,0,0,1,.432-1.5Z" transform="translate(-1002.898 -557.005)"/><path class="k" d="M1428.373,787.311l1.6.572a.782.782,0,0,1-.515,1.477h0l-1.577-.552h0a.782.782,0,1,1,.515-1.476Z" transform="translate(-1018.919 -562.005)"/><path class="k" d="M1450.464,795.52l1.565.647a.784.784,0,1,1-.6,1.448h0l-1.562-.644h0a.784.784,0,0,1,.6-1.448Z" transform="translate(-1034.666 -567.851)"/><path class="k" d="M1472,804.99l1.525.733a.792.792,0,0,1-.681,1.431h0l-1.508-.724h0a.785.785,0,0,1,.681-1.414Z" transform="translate(-1049.994 -574.605)"/><path class="k" d="M1493.066,815.636l1.482.818a.788.788,0,0,1-.761,1.379h0l-1.459-.81h0a.787.787,0,0,1,.761-1.376Z" transform="translate(-1065.026 -582.189)"/><path class="k" d="M1513.345,827.444l1.431.9a.79.79,0,0,1-.841,1.336h0l-1.413-.89h0a.788.788,0,1,1,.838-1.333Z" transform="translate(-1079.451 -590.595)"/><path class="k" d="M1532.928,840.364l1.379.976a.79.79,0,1,1-.913,1.288h0l-1.368-.967h0a.79.79,0,1,1,.913-1.288Z" transform="translate(-1093.382 -599.784)"/><path class="k" d="M1552.08,854.315l1.342,1.022a.79.79,0,1,1-.956,1.259h0l-1.336-1.013h0a.793.793,0,0,1,.956-1.262Z" transform="translate(-1107.074 -609.76)"/><path class="k" d="M1570.6,868.588l1.328,1.039a.8.8,0,1,1-.987,1.25h0l-1.322-1.036a.793.793,0,1,1,.976-1.25Z" transform="translate(-1120.255 -619.925)"/><path class="k" d="M1589.113,883.123l1.322,1.033a.8.8,0,1,1-.976,1.256h0l-1.325-1.039a.794.794,0,1,1,.982-1.248Z" transform="translate(-1133.474 -630.299)"/><path class="k" d="M1607.592,897.437l1.339,1.01h0a.8.8,0,1,1-.959,1.271h0l-1.345-1.019a.8.8,0,1,1,.959-1.268Z" transform="translate(-1146.646 -640.501)"/><path class="k" d="M1626.439,911.361l1.368.961h0a.8.8,0,0,1-.918,1.3h0l-1.382-.973a.8.8,0,1,1,.916-1.3Z" transform="translate(-1160.099 -650.445)"/><path class="k" d="M1645.99,924.56l1.431.887h0a.8.8,0,0,1-.859,1.356h0l-1.431-.9a.8.8,0,1,1,.858-1.354Z" transform="translate(-1174.112 -659.901)"/><path class="k" d="M1666.068,936.42l1.474.775h.017a.8.8,0,0,1-.747,1.416h0l-1.5-.79a.8.8,0,1,1,.744-1.416Z" transform="translate(-1188.448 -668.373)"/><path class="k" d="M1687.271,946.666l1.539.621h.02a.8.8,0,1,1-.6,1.488h0l-1.58-.627a.8.8,0,1,1,.6-1.485Z" transform="translate(-1203.659 -675.734)"/><path class="k" d="M1709.21,954.383l1.6.423h.029a.8.8,0,0,1-.412,1.554h0l-1.654-.441a.8.8,0,1,1,.415-1.551Z" transform="translate(-1219.348 -681.248)"/><path class="k" d="M1732.155,959.222l1.64.192h.031a.805.805,0,0,1-.186,1.6h0l-1.717-.2a.805.805,0,1,1,.186-1.6Z" transform="translate(-1235.826 -684.733)"/><path class="k" d="M1755.561,960.3l1.645-.083h.034a.807.807,0,1,1,.08,1.611h0l-1.717.086a.807.807,0,0,1-.08-1.611Z" transform="translate(-1252.653 -685.447)"/><path class="k" d="M1778.71,957.015l1.611-.346h.031a.81.81,0,1,1,.34,1.582h0l-1.674.36a.808.808,0,1,1-.34-1.579Z" transform="translate(-1269.256 -682.901)"/><path class="k" d="M1801.287,950.149l1.545-.589h.026a.81.81,0,1,1,.572,1.514h0l-1.6.609a.81.81,0,0,1-.572-1.514Z" transform="translate(-1285.477 -677.798)"/><path class="k" d="M1822.594,940.2l1.451-.8h.023a.815.815,0,0,1,.781,1.431h0l-1.5.824a.815.815,0,1,1-.781-1.431Z" transform="translate(-1300.74 -670.521)"/><path class="k" d="M1842.543,927.516l1.339-.973h.02a.813.813,0,1,1,.956,1.316h0l-1.379,1a.813.813,0,0,1-.956-1.316Z" transform="translate(-1315.047 -661.302)"/><path class="k" d="M1860.763,912.52l1.222-1.125.017-.014a.814.814,0,0,1,1.1,1.2h0l-1.253,1.145a.816.816,0,1,1-1.1-1.2Z" transform="translate(-1328.085 -650.436)"/><path class="k" d="M1877.347,895.628l1.09-1.253v-.014a.815.815,0,1,1,1.23,1.07h0l-1.119,1.285a.816.816,0,0,1-1.23-1.073Z" transform="translate(-1339.981 -638.24)"/><path class="k" d="M1891.973,877.087l.95-1.362v-.017a.819.819,0,0,1,1.342.939h0l-.976,1.394a.818.818,0,1,1-1.342-.936Z" transform="translate(-1350.453 -624.875)"/><path class="k" d="M1904.685,857.161l.8-1.454v-.017a.819.819,0,0,1,1.431.8h0l-.827,1.488a.819.819,0,1,1-1.431-.8Z" transform="translate(-1359.571 -610.535)"/><path class="k" d="M1915.237,836.045l.65-1.528v-.02a.824.824,0,1,1,1.517.644h0l-.667,1.568a.821.821,0,1,1-1.511-.644Z" transform="translate(-1367.138 -595.348)"/><path class="k" d="M1923.512,814l.484-1.588v-.02a.822.822,0,0,1,1.574.475h0l-.495,1.628a.822.822,0,0,1-1.574-.478Z" transform="translate(-1373.067 -579.509)"/><path class="k" d="M1929.442,791.235l.326-1.628v-.02a.824.824,0,0,1,1.617.323h0l-.335,1.668a.824.824,0,1,1-1.614-.323Z" transform="translate(-1377.311 -563.174)"/><path class="k" d="M1933.282,768.166l.177-1.654V766.5a.827.827,0,0,1,1.642.177h0l-.183,1.688a.827.827,0,0,1-1.642-.177Z" transform="translate(-1380.069 -546.664)"/><path class="k" d="M1935,744.668l.037-1.665v-.02a.827.827,0,1,1,1.654.037h0l-.037,1.7a.827.827,0,0,1-1.654-.02Z" transform="translate(-1381.301 -529.802)"/><path class="k" d="M1934.583,721.16l-.1-1.663h0a.83.83,0,1,1,1.654-.1h0l.1,1.694a.828.828,0,1,1-1.654.1Z" transform="translate(-1380.93 -512.952)"/><path class="k" d="M1932.217,697.957l-.226-1.651h0a.83.83,0,1,1,1.645-.226h0l.229,1.68a.83.83,0,1,1-1.645.223Z" transform="translate(-1379.147 -496.385)"/><path class="k" d="M1928.072,674.792l-.346-1.631h0a.833.833,0,1,1,1.628-.343h0l.352,1.66a.833.833,0,0,1-1.628.343Z" transform="translate(-1376.09 -479.796)"/><path class="k" d="M1922.346,652.137l-.458-1.6h0a.834.834,0,0,1,1.6-.461h0l.469,1.631a.833.833,0,0,1-1.6.458Z" transform="translate(-1371.918 -463.625)"/><path class="k" d="M1915.016,629.794l-.572-1.568V628.2a.836.836,0,0,1,1.571-.572h0l.572,1.594a.836.836,0,1,1-1.568.572Z" transform="translate(-1366.59 -447.64)"/><path class="k" d="M1906.242,608.186l-.672-1.525h0a.838.838,0,0,1,1.534-.675h0l.681,1.554a.836.836,0,1,1-1.531.672Z" transform="translate(-1360.249 -432.245)"/><path class="k" d="M1895.933,586.914l-.773-1.477v-.014a.838.838,0,1,1,1.485-.775h0l.787,1.5a.839.839,0,0,1-1.488.775Z" transform="translate(-1352.781 -417.008)"/><path class="k" d="M1884.449,566.779l-.858-1.431h0a.841.841,0,0,1,1.431-.876h0l.884,1.448a.839.839,0,0,1-1.431.876Z" transform="translate(-1344.537 -402.701)"/><path class="k" d="M1871.377,547.232l-.973-1.351h0a.836.836,0,0,1,1.354-.979l1,1.376a.841.841,0,0,1-1.359.987h0Z" transform="translate(-1335.088 -388.748)"/><path class="k" d="M1856.849,528.8l-1.07-1.282h0a.823.823,0,0,1,1.259-1.059l1.093,1.3a.827.827,0,0,1-1.265,1.065h0Z" transform="translate(-1324.611 -375.604)"/><path class="k" d="M1841.262,511.3l-1.145-1.228h0a.81.81,0,1,1,1.185-1.1l1.145,1.236a.814.814,0,1,1-1.19,1.11h0Z" transform="translate(-1313.414 -363.143)"/><path class="k" d="M1825.031,494.565l-1.185-1.182h0a.8.8,0,0,1,1.125-1.13l1.2,1.188a.8.8,0,1,1-1.127,1.145h0Z" transform="translate(-1301.807 -351.25)"/><path class="k" d="M1808.17,478.359l-1.222-1.145h0a.787.787,0,0,1,1.073-1.145l1.233,1.145a.787.787,0,1,1-1.073,1.145h0Z" transform="translate(-1289.745 -339.72)"/><path class="k" d="M1790.862,462.661l-1.253-1.113h0a.773.773,0,0,1,1.021-1.145l1.265,1.116a.775.775,0,1,1-1.024,1.162h0Z" transform="translate(-1277.375 -328.56)"/><path class="k" d="M1773.063,447.309l-1.276-1.087h0a.753.753,0,0,1,.97-1.145l1.3,1.079a.762.762,0,1,1-.976,1.17h0Z" transform="translate(-1264.633 -317.617)"/><path class="k" d="M1754.916,432.35l-1.3-1.059h0a.716.716,0,0,1,.9-1.116l1.319,1.05a.729.729,0,0,1-.9,1.145h0Z" transform="translate(-1251.627 -306.968)"/><path class="k" d="M1736.561,417.9l-1.322-1.033h0a.678.678,0,1,1,.827-1.076l1.342,1.022a.69.69,0,1,1-.836,1.1h0Z" transform="translate(-1238.512 -296.711)"/><path class="k" d="M1717.964,403.9l-1.345-1h0a.644.644,0,0,1,.761-1.036l1.362.993a.652.652,0,0,1-.767,1.053h0Z" transform="translate(-1225.243 -286.795)"/><path class="k" d="M1698.987,390.247l-1.371-.973h0a.607.607,0,0,1,.7-.993l1.388.961a.615.615,0,1,1-.7,1.01h0Z" transform="translate(-1211.674 -277.107)"/><path class="k" d="M1679.684,377.153l-1.391-.941h0a.552.552,0,0,1,.612-.919l1.414.919a.572.572,0,0,1-.621.953h0Z" transform="translate(-1197.886 -267.844)"/><path class="k" d="M1660.192,364.616l-1.431-.9h0a.492.492,0,0,1,.524-.818l1.431.878a.5.5,0,0,1,.169.7.509.509,0,0,1-.7.172h0Z" transform="translate(-1183.991 -259.027)"/><path class="k" d="M1640.032,352.612l-1.448-.841h0a.433.433,0,0,1,.429-.753l1.474.821a.449.449,0,0,1-.438.784h0Z" transform="translate(-1169.548 -250.534)"/><path class="k" d="M1620.161,342.023l-1.242-.638h0a.361.361,0,0,1-.154-.481.352.352,0,0,1,.472-.157l1.268.612a.375.375,0,0,1-.326.672h0Z" transform="translate(-1155.529 -243.216)"/><path class="aq" d="M1587.762,295.55l-2.261,9.363-5.371-5.557Z" transform="translate(-1127.977 -210.979)"/><path class="ar" d="M1464.16,241.24l19.936,28.289a2.441,2.441,0,0,0,3.482.544l27.648-21.086a.979.979,0,0,0-.478-1.748Z" transform="translate(-1045.192 -172.209)"/><path class="aq" d="M1504.973,256.781,1464.16,241.24l36.361,18.957-.515,2.624Z" transform="translate(-1045.192 -172.209)"/><path class="aq" d="M1581.95,309.5l4.85,3.94-2.195-5.946Z" transform="translate(-1129.276 -219.502)"/></g></g></svg>