<svg xmlns="http://www.w3.org/2000/svg" width="181.172" height="30" viewBox="0 0 181.172 30"><defs><style>.a{fill:#333;}.b{fill:#0c80ae;fill-rule:evenodd;}</style></defs><g transform="translate(-13.283 -159)"><path class="a" d="M1.283-15.024A12.008,12.008,0,0,1,1.57-17.6a11.7,11.7,0,0,1,.868-2.531,11.518,11.518,0,0,1,1.457-2.3,9.675,9.675,0,0,1,2.053-1.891A9.859,9.859,0,0,1,8.6-25.6a10.857,10.857,0,0,1,3.259-.463,11,11,0,0,1,3.318.471,9.738,9.738,0,0,1,2.656,1.28,9.218,9.218,0,0,1,2.008,1.891,11.491,11.491,0,0,1,1.405,2.3,11.57,11.57,0,0,1,.824,2.531,12.9,12.9,0,0,1,.265,2.56,11.647,11.647,0,0,1-.427,3.068,11.692,11.692,0,0,1-1.273,2.972,11,11,0,0,1-2.126,2.546,9.335,9.335,0,0,1-2.972,1.773v.029a10.929,10.929,0,0,1,1.184.059,4.617,4.617,0,0,1,1.037.235,4.562,4.562,0,0,1,1.008.515,9.855,9.855,0,0,1,1.111.883q1.03.971,1.655,1.567t1.03.912a2.553,2.553,0,0,0,.736.427,2.665,2.665,0,0,0,.831.11V2.088H22.839q-1.045,0-1.744-.044a5.739,5.739,0,0,1-1.251-.206,3.989,3.989,0,0,1-1.059-.493,10.121,10.121,0,0,1-1.14-.89,21.813,21.813,0,0,1-1.692-1.641q-.736-.8-1.42-1.427a6.63,6.63,0,0,0-1.405-1,3.518,3.518,0,0,0-1.648-.375,11.291,11.291,0,0,1-3.333-.456A9.273,9.273,0,0,1,5.536-5.7,8.446,8.446,0,0,1,3.6-7.564a10.911,10.911,0,0,1-1.317-2.3A12.186,12.186,0,0,1,1.526-12.4,14.5,14.5,0,0,1,1.283-15.024Zm4.738-.353a15.928,15.928,0,0,0,.132,2,13.691,13.691,0,0,0,.427,2.067,11.029,11.029,0,0,0,.765,1.95,6.751,6.751,0,0,0,1.14,1.626,5.192,5.192,0,0,0,1.567,1.118,4.742,4.742,0,0,0,2.031.419,4.514,4.514,0,0,0,1.854-.36,4.619,4.619,0,0,0,1.42-.978,5.884,5.884,0,0,0,1.037-1.442,9.5,9.5,0,0,0,.692-1.744,12.045,12.045,0,0,0,.383-1.9,15.836,15.836,0,0,0,.118-1.891,18.575,18.575,0,0,0-.353-3.745,9.562,9.562,0,0,0-1.089-2.957,5.6,5.6,0,0,0-1.854-1.942,4.894,4.894,0,0,0-2.649-.7,4.75,4.75,0,0,0-1.905.36A4.6,4.6,0,0,0,8.28-22.5a5.9,5.9,0,0,0-1.052,1.464,9.881,9.881,0,0,0-.7,1.773,12.072,12.072,0,0,0-.39,1.935A16.558,16.558,0,0,0,6.021-15.377Zm33.43,6.062q-.015.839-.029,1.192t-.037.728q-.022.375-.051.714l1.957-.088v2.3H35.567L35.4-6.048h-.029q-.456.4-.949.772a7.224,7.224,0,0,1-1.045.662,5.861,5.861,0,0,1-1.177.456,5.138,5.138,0,0,1-1.346.169,6.016,6.016,0,0,1-2.288-.39,3.609,3.609,0,0,1-1.552-1.2,5.369,5.369,0,0,1-.883-2.067,14.052,14.052,0,0,1-.28-3.009v-3.458q0-.544.022-1.251t.1-1.383l-2.119.088v-2.281a17.068,17.068,0,0,0,1.847-.088,11.782,11.782,0,0,0,1.368-.221,5.191,5.191,0,0,0,.912-.287,1.963,1.963,0,0,0,.508-.3h1.648v9.226A6.334,6.334,0,0,0,30.645-7.7a1.744,1.744,0,0,0,1.655.927,2.856,2.856,0,0,0,.765-.11,4.031,4.031,0,0,0,.78-.309,4.938,4.938,0,0,0,.728-.463,4.5,4.5,0,0,0,.611-.559v-5.9q0-.544.022-1.251t.1-1.383l-2.119.088v-2.281a16.861,16.861,0,0,0,1.839-.088,11.806,11.806,0,0,0,1.361-.221,5.191,5.191,0,0,0,.912-.287,1.963,1.963,0,0,0,.508-.3h1.648Zm9.858,0q0,.221-.007.53t-.022.662q-.015.353-.037.728t-.051.714l1.957-.088v2.3h-7.9V-6.431a2.14,2.14,0,0,0,.993-.191,1.226,1.226,0,0,0,.537-.544A2.352,2.352,0,0,0,45-8.013q.044-.493.044-1.1v-5q0-.544.022-1.251t.1-1.383l-2.119.088v-2.281a17.068,17.068,0,0,0,1.847-.088,11.781,11.781,0,0,0,1.368-.221,5.191,5.191,0,0,0,.912-.287,1.963,1.963,0,0,0,.508-.3h1.633Zm.441-15.656a2.757,2.757,0,0,1-.162.956,2.553,2.553,0,0,1-.449.78,2,2,0,0,1-.706.53,2.19,2.19,0,0,1-.92.191,2.327,2.327,0,0,1-.949-.191,2.188,2.188,0,0,1-.743-.53,2.44,2.44,0,0,1-.478-.78,2.65,2.65,0,0,1-.169-.956,2.572,2.572,0,0,1,.184-.971,2.543,2.543,0,0,1,.5-.795,2.336,2.336,0,0,1,.728-.53,2.071,2.071,0,0,1,.883-.191,2.154,2.154,0,0,1,.9.191,2.228,2.228,0,0,1,.728.53,2.4,2.4,0,0,1,.478.795A2.769,2.769,0,0,1,49.751-24.97ZM62.375-15.6a2.868,2.868,0,0,1,.088-.64,2.1,2.1,0,0,1,.28-.669,1.49,1.49,0,0,0-.419-.486,2.505,2.505,0,0,0-.544-.309,2.518,2.518,0,0,0-.574-.162,3.384,3.384,0,0,0-.508-.044,2.867,2.867,0,0,0-1.4.346,3.162,3.162,0,0,0-1.1,1.03,5.372,5.372,0,0,0-.721,1.685,9.314,9.314,0,0,0-.257,2.31,11.156,11.156,0,0,0,.213,2.207,5.845,5.845,0,0,0,.7,1.869,3.762,3.762,0,0,0,1.28,1.295,3.688,3.688,0,0,0,1.957.486,4.529,4.529,0,0,0,1.214-.169,5.613,5.613,0,0,0,1.17-.471,6.32,6.32,0,0,0,1.067-.728,6.077,6.077,0,0,0,.9-.942l1.383,1.339a9.94,9.94,0,0,1-1.692,1.847A8.065,8.065,0,0,1,63.67-4.687a7.013,7.013,0,0,1-1.751.552,10.119,10.119,0,0,1-1.692.147A7.983,7.983,0,0,1,57.351-4.5,6.8,6.8,0,0,1,55-6a7.126,7.126,0,0,1-1.6-2.413,8.509,8.509,0,0,1-.589-3.266,9.041,9.041,0,0,1,.574-3.215,8.2,8.2,0,0,1,1.6-2.656,7.658,7.658,0,0,1,2.472-1.8,7.49,7.49,0,0,1,3.193-.669,8.16,8.16,0,0,1,2.516.353,5.8,5.8,0,0,1,1.817.927,3.855,3.855,0,0,1,1.1,1.317,3.426,3.426,0,0,1,.368,1.538,2.684,2.684,0,0,1-.14.868,2.1,2.1,0,0,1-.412.721,1.916,1.916,0,0,1-.669.486,2.188,2.188,0,0,1-.9.177,2,2,0,0,1-.927-.191,1.9,1.9,0,0,1-.6-.478,1.706,1.706,0,0,1-.331-.633A2.459,2.459,0,0,1,62.375-15.6ZM74.308-9.315q0,.221-.007.53t-.022.662q-.015.353-.037.728t-.051.714l1.957-.088v2.3h-7.9V-6.431a2.14,2.14,0,0,0,.993-.191,1.226,1.226,0,0,0,.537-.544A2.352,2.352,0,0,0,70-8.013q.044-.493.044-1.1V-21.5q0-.544.022-1.251t.1-1.383l-2.119.088v-2.281a17.068,17.068,0,0,0,1.847-.088,11.782,11.782,0,0,0,1.368-.221,5.191,5.191,0,0,0,.912-.287,1.964,1.964,0,0,0,.508-.3h1.633v13.743H75.78l2.148-2.5q.383-.441.64-.728a6.936,6.936,0,0,1,.537-.537v-.029l-1.6.029v-2.3h6.8v1.928a5.865,5.865,0,0,0-1.449.338,6.578,6.578,0,0,0-1.177.581,6.414,6.414,0,0,0-.934.714q-.412.383-.736.736L78.075-13.1v.029a3.217,3.217,0,0,1,.449.272,4.608,4.608,0,0,1,.441.368q.228.213.493.515t.589.728L82.063-8.55q.177.235.456.6a6.413,6.413,0,0,0,.633.7,3.935,3.935,0,0,0,.78.581,1.789,1.789,0,0,0,.9.243v1.957H81.371a2.2,2.2,0,0,1-.89-.177,3.231,3.231,0,0,1-.795-.508,6.431,6.431,0,0,1-.795-.824q-.4-.493-.875-1.126-.4-.53-.839-1.148t-.846-1.207q-.4-.589-.758-1.1T75-11.375l-.692.029Zm50.071,0q0,.221-.007.53t-.022.662q-.015.353-.037.728t-.051.714l1.957-.088v2.3h-7.9V-6.431a2.14,2.14,0,0,0,.993-.191,1.226,1.226,0,0,0,.537-.544,2.352,2.352,0,0,0,.221-.846q.044-.493.044-1.1v-5q0-.544.022-1.251t.1-1.383l-2.119.088v-2.281a17.068,17.068,0,0,0,1.847-.088,11.781,11.781,0,0,0,1.368-.221,5.191,5.191,0,0,0,.912-.287,1.963,1.963,0,0,0,.508-.3h1.633Zm.441-15.656a2.757,2.757,0,0,1-.162.956,2.553,2.553,0,0,1-.449.78,2,2,0,0,1-.706.53,2.19,2.19,0,0,1-.92.191,2.327,2.327,0,0,1-.949-.191,2.188,2.188,0,0,1-.743-.53,2.44,2.44,0,0,1-.478-.78,2.65,2.65,0,0,1-.169-.956,2.572,2.572,0,0,1,.184-.971,2.543,2.543,0,0,1,.5-.795,2.336,2.336,0,0,1,.728-.53,2.071,2.071,0,0,1,.883-.191,2.154,2.154,0,0,1,.9.191,2.228,2.228,0,0,1,.728.53,2.4,2.4,0,0,1,.478.795A2.769,2.769,0,0,1,124.821-24.97Zm8.946,15.656q0,.221-.007.53t-.022.662q-.015.353-.037.728t-.051.714l1.957-.088v2.3h-7.9V-6.431a2.14,2.14,0,0,0,.993-.191,1.226,1.226,0,0,0,.537-.544,2.352,2.352,0,0,0,.221-.846q.044-.493.044-1.1V-21.5q0-.544.022-1.251t.1-1.383l-2.119.088v-2.281a17.069,17.069,0,0,0,1.847-.088,11.783,11.783,0,0,0,1.368-.221,5.192,5.192,0,0,0,.912-.287,1.964,1.964,0,0,0,.508-.3h1.633Zm9.593-8.3a1.056,1.056,0,0,0-.787.3,1.051,1.051,0,0,0-.228.7,2.729,2.729,0,0,0,.081.633q.081.338.213.721l2.531,6.239h.029l2.192-6.209a11.985,11.985,0,0,1,.493-1.2,9.668,9.668,0,0,1,.508-.9v-.029l-1.869.118v-2.3h5.709v1.928a1.841,1.841,0,0,0-.964.493,4.824,4.824,0,0,0-.78.949,8.579,8.579,0,0,0-.6,1.126q-.257.581-.434,1.037L145.6-4.386h-2.634L138.2-14.833q-.25-.544-.383-.9t-.2-.618q-.066-.257-.1-.471t-.1-.478l-1.118.059v-2.3h7.063Zm17.2-.294a2.709,2.709,0,0,0-1.184.25,2.768,2.768,0,0,0-.9.692,3.6,3.6,0,0,0-.625,1.067,6.074,6.074,0,0,0-.346,1.376h5.547a6.331,6.331,0,0,0-.221-1.574,2.975,2.975,0,0,0-.522-1.052,1.909,1.909,0,0,0-.772-.581A2.592,2.592,0,0,0,160.561-17.908Zm6.651,5.326-9.9.177a10.8,10.8,0,0,0,.228,2.288,5.286,5.286,0,0,0,.728,1.81,3.56,3.56,0,0,0,1.31,1.192,4.159,4.159,0,0,0,1.986.434,4.968,4.968,0,0,0,1.015-.118,5.472,5.472,0,0,0,1.14-.383,6.572,6.572,0,0,0,1.17-.7,6.093,6.093,0,0,0,1.1-1.067l1.354,1.28a8.733,8.733,0,0,1-1.722,1.883,8.245,8.245,0,0,1-1.832,1.118,7.5,7.5,0,0,1-1.81.537,10.714,10.714,0,0,1-1.655.14,7.942,7.942,0,0,1-3.031-.559,6.656,6.656,0,0,1-2.354-1.6,7.222,7.222,0,0,1-1.523-2.516,9.606,9.606,0,0,1-.537-3.311,8.674,8.674,0,0,1,.537-3.038,8.1,8.1,0,0,1,1.523-2.568,7.33,7.33,0,0,1,2.376-1.78,7.113,7.113,0,0,1,3.1-.662,9.564,9.564,0,0,1,1.67.147,6.57,6.57,0,0,1,1.589.493,6.011,6.011,0,0,1,1.413.9,5.168,5.168,0,0,1,1.126,1.383,7.457,7.457,0,0,1,.743,1.942A10.493,10.493,0,0,1,167.212-12.581Zm12.61-7.445a3.408,3.408,0,0,1,1.008.147,2.383,2.383,0,0,1,.839.449,2.14,2.14,0,0,1,.574.772,2.732,2.732,0,0,1,.213,1.133,2.428,2.428,0,0,1-.118.728,2.057,2.057,0,0,1-.368.684,1.908,1.908,0,0,1-.655.508,2.2,2.2,0,0,1-.978.2,2.6,2.6,0,0,1-.633-.081,1.7,1.7,0,0,1-.6-.28,1.745,1.745,0,0,1-.471-.537,2.041,2.041,0,0,1-.243-.868,1.678,1.678,0,0,0-.92.3,4.412,4.412,0,0,0-.868.75,6.2,6.2,0,0,0-.714.964,4.562,4.562,0,0,0-.441.927v4.914q0,.221-.007.53t-.022.662q-.015.353-.037.728t-.051.714l1.957-.088v2.3h-7.9V-6.431a2.14,2.14,0,0,0,.993-.191,1.226,1.226,0,0,0,.537-.544,2.352,2.352,0,0,0,.221-.846q.044-.493.044-1.1v-5.076q0-.544.022-1.214t.1-1.346l-2.119.088v-2.281a17.068,17.068,0,0,0,1.847-.088,11.781,11.781,0,0,0,1.368-.221,5.191,5.191,0,0,0,.912-.287,1.964,1.964,0,0,0,.508-.3H175.3l.132,2.59h.044q.294-.4.714-.883a6.365,6.365,0,0,1,.971-.9,5.823,5.823,0,0,1,1.214-.706A3.587,3.587,0,0,1,179.822-20.027Z" transform="translate(12 186.912)"/><g transform="translate(105.959 159)"><g transform="translate(0 0)"><path class="b" d="M9.252,112.561a30.967,30.967,0,0,0,2.738,3.257c.356.4.722.8,1.068,1.2,1.106,1.283,2.893,3.559,2.807,5.322a2.362,2.362,0,0,1-.039.321,2.539,2.539,0,0,1-1.384,1.85,6.366,6.366,0,0,1-3.28.557,5.525,5.525,0,0,1-3.721-1.392,4.183,4.183,0,0,1-1.076-1.988l-.155-.642,1.292-.008-3.774-3.725L0,121.086l1.261-.008.062.456a7.812,7.812,0,0,0,2.166,4.657c1.795,1.74,4.448,2.3,6.869,2.421,2.567.132,5.477-.124,7.69-1.571a6.177,6.177,0,0,0,2.87-5.175,6.278,6.278,0,0,0-.433-2.727,5.9,5.9,0,0,0-1.556-2.178,9.062,9.062,0,0,0-1.872-1.123c-1.191-.573-2.445-1.068-3.689-1.532l-.247-.092-1.238-.464a17.469,17.469,0,0,1-2.63-1.192Z" transform="translate(0 -103.532)"/><path class="b" d="M28.924,15.945a26.185,26.185,0,0,0-2.53-3.071c-.449-.495-.906-.991-1.347-1.5-1.083-1.246-2.793-3.389-2.708-5.117.008-.08.016-.155.023-.232a2.439,2.439,0,0,1,1.269-1.733,5.048,5.048,0,0,1,2.8-.58,5.18,5.18,0,0,1,3.208,1.1,3.477,3.477,0,0,1,.9,1.283l.3.722-1.477.015,3.775,3.729,3.731-3.774-1.1.008-.07-.449A6.5,6.5,0,0,0,33.635,2.43,10.175,10.175,0,0,0,27.026.024a10.965,10.965,0,0,0-6.96,1.625,6.265,6.265,0,0,0-2.708,5.083,5.745,5.745,0,0,0,1.083,3.77,9.224,9.224,0,0,0,3.689,2.824c1.431.65,2.909,1.214,4.394,1.725.727.255,1.454.518,2.166.8a1.476,1.476,0,0,1,.233.092Z" transform="translate(-15.958 0)"/></g></g></g></svg>